<svg xmlns="http://www.w3.org/2000/svg" width="84" height="84" viewBox="0 0 84 84">
    <path fill="#54BFAF" fill-rule="nonzero" d="M5.242 41.928a1.247 1.247 0 0 1-.379-.164 1.579 1.579 0 0 1-.324-.287c-.18-.239-.23-.35-.265-.462a1.41 1.41 0 0 1-.05-.414l.62-8.236c.047-.626.582-1.026 1.195-.892.613.134 1.07.75 1.022 1.378l-.336 4.412c3.061-2.91 6.908-4.617 7.091-4.696 29.397-14.175 63.62 4.544 69.395 15.306.286.533.174 1.141-.24 1.442-.668.34-1.351.068-1.668-.52-5.144-9.587-38.912-27.32-66.373-14.08-.05.02-4.026 1.783-6.896 4.645l5.118-.479c.6-.055 1.195.418 1.33 1.056.135.64-.244 1.2-.843 1.259l-8.068.754c-.11.01-.22.001-.33-.022z"/>
</svg>
