<svg xmlns="http://www.w3.org/2000/svg" width="87" height="87" viewBox="0 0 87 87">
    <path fill="#E3F1EF" fill-rule="evenodd" d="M50.788 84.285c-15.188 0-27.5-12.312-27.5-27.5s12.312-27.5 27.5-27.5 27.5 12.312 27.5 27.5-12.312 27.5-27.5 27.5zM40.693 7.097c-.072.08-.154.15-.245.205l-6.76 4.014c-.504.296-1.12.071-1.378-.508-.259-.579-.062-1.29.44-1.589l4.289-2.546c-3.883-.61-8.007.275-8.059.287C17.74 8.998 9.783 19.169 11.212 29.639c.087.643-.294 1.246-.852 1.348a.969.969 0 0 1-.16.013c-.496 0-.93-.414-1.01-.996C7.587 18.25 16.307 6.87 28.63 4.636c.189-.042 4.18-.896 8.24-.358l-2.778-3.275c-.396-.466-.388-1.212.016-1.667.405-.455 1.052-.446 1.447.019l5.155 6.073c.011.013.015.031.025.045.075.097.138.203.182.322.004.012.012.02.015.032a1.3 1.3 0 0 1 .068.344c0 .019-.004.037-.004.057 0 .039-.005.075-.008.113a1.274 1.274 0 0 1-.053.298c-.012.039-.022.075-.038.113a1.18 1.18 0 0 1-.203.344z"/>
</svg>
