<svg xmlns="http://www.w3.org/2000/svg" width="87" height="87" viewBox="0 0 87 87">
    <path fill="#E3F1EF" fill-rule="evenodd" d="M27.5 83.706c-15.188 0-27.5-12.312-27.5-27.5s12.312-27.5 27.5-27.5S55 41.018 55 56.206s-12.312 27.5-27.5 27.5zm20.442-65.107h-.001c-.002 0-.004 0-.006-.002a1.18 1.18 0 0 1-.38-.098c-.04-.016-.072-.034-.107-.053a1.274 1.274 0 0 1-.249-.173c-.029-.025-.058-.046-.085-.074-.014-.015-.03-.024-.044-.038a1.3 1.3 0 0 1-.194-.291c-.006-.01-.007-.022-.012-.033a1.22 1.22 0 0 1-.1-.357c-.002-.017-.012-.032-.014-.05L46.1 9.49c-.05-.607.402-1.071 1.01-1.035.608.036 1.14.558 1.19 1.167l.35 4.28c2.491-3.251 5.918-5.47 6.081-5.573 10.293-7.134 24.506-5.254 31.684 4.192.355.467.341 1.067-.01 1.418a.969.969 0 0 1-.122.103c-.466.323-1.162.166-1.556-.35-6.393-8.414-19.211-9.98-28.6-3.472-.045.027-3.587 2.318-5.902 5.495l4.833-1.232c.567-.144 1.209.22 1.435.812.227.592-.05 1.186-.615 1.334l-7.618 1.942a1.084 1.084 0 0 1-.32.028z"/>
</svg>
