<svg xmlns="http://www.w3.org/2000/svg" width="87" height="87" viewBox="0 0 87 87">
    <path fill="#E3F1EF" fill-rule="evenodd" d="M49.622 83.917c-15.188 0-27.5-12.312-27.5-27.5s12.312-27.5 27.5-27.5 27.5 12.312 27.5 27.5-12.312 27.5-27.5 27.5zm-.518-66.762c-.106.02-.213.024-.32.011l-7.798-.999c-.58-.077-.926-.633-.773-1.249.153-.615.745-1.054 1.325-.98l4.947.633c-2.684-2.871-6.479-4.713-6.526-4.735-10.113-5.314-22.645-2.198-27.965 6.932-.328.56-1 .801-1.501.538a.969.969 0 0 1-.135-.088c-.39-.305-.478-.899-.182-1.407C16.149 5.561 30.027 1.963 41.113 7.79c.175.083 3.846 1.867 6.715 4.79l-.174-4.29c-.025-.611.44-1.195 1.039-1.304.6-.11 1.104.296 1.128.905l.324 7.96c0 .017-.008.033-.008.05a1.22 1.22 0 0 1-.055.366c-.004.012-.004.024-.008.035a1.3 1.3 0 0 1-.158.312c-.011.016-.026.028-.039.043-.023.032-.05.056-.076.084a1.274 1.274 0 0 1-.225.203c-.033.023-.063.045-.099.065a1.18 1.18 0 0 1-.366.144l-.005.002h-.002z"/>
</svg>
