<svg xmlns="http://www.w3.org/2000/svg" width="87" height="87" viewBox="0 0 87 87">
    <path fill="#E3F1EF" fill-rule="evenodd" d="M27.5 79.285c-15.188 0-27.5-12.312-27.5-27.5s12.312-27.5 27.5-27.5S55 36.597 55 51.785s-12.312 27.5-27.5 27.5zm27.287-64.188l-.001-.001a1.18 1.18 0 0 1-.203-.344c-.016-.038-.026-.074-.038-.113a1.274 1.274 0 0 1-.053-.298c-.003-.038-.009-.074-.008-.113 0-.02-.005-.038-.004-.057a1.3 1.3 0 0 1 .068-.344c.003-.011.011-.02.015-.032a1.22 1.22 0 0 1 .182-.322c.01-.014.014-.032.025-.045l5.155-6.073c.395-.465 1.042-.474 1.447-.019.404.455.412 1.201.016 1.667l-2.779 3.275c4.06-.538 8.052.316 8.24.358C79.174 14.87 87.894 26.25 86.29 38.004c-.079.582-.513.996-1.009.996a.969.969 0 0 1-.16-.014c-.558-.101-.939-.704-.852-1.347 1.429-10.47-6.528-20.641-17.768-22.68-.052-.011-4.176-.896-8.059-.286l4.289 2.546c.502.299.699 1.01.44 1.589-.258.579-.874.804-1.378.508l-6.76-4.014a1.084 1.084 0 0 1-.245-.205z"/>
</svg>
