<svg xmlns="http://www.w3.org/2000/svg" width="64" height="64" viewBox="0 0 64 64">
    <g fill="none" fill-rule="nonzero">
        <path fill="#FFF" d="M2.783 42.367l2.679-9.083-.129-.301.969-.438.066.159 12.721-7.345a.5.5 0 0 1 .683.183l14.579 25.251a.5.5 0 0 1-.183.683L14.556 62.8a.5.5 0 0 1-.683-.183L2.993 43.77l-.191.15-.507-1.197.488-.356zm.289-4.513l-1.463 4.96a.9.9 0 0 0 .084.705l11.314 19.597a1.5 1.5 0 0 0 2.05.549l19.611-11.323a1.5 1.5 0 0 0 .549-2.049L20.638 25.042a1.5 1.5 0 0 0-2.049-.55L4.948 32.37a.9.9 0 0 0-.413.524l-1.463 4.96 1.463-4.96a.9.9 0 0 1 .413-.524l13.641-7.876a1.5 1.5 0 0 1 2.05.549l8.31 14.395A17.896 17.896 0 0 1 37 37.027v-2.172c-5.354-1.45-9.317-6.142-9.494-11.764H27a2 2 0 0 1-2-2V20a2 2 0 0 1 2-2h.5v-1.88c0-1.207.174-2.374.5-3.48C28.047 5.653 33.727 0 40.727 0 33.698 0 28 5.698 28 12.727h6.582l1.62-1.62a1 1 0 0 1 1.414 0l1.62 1.62h14.219-.43c.31 1.08.475 2.218.475 3.394V18h.59a2 2 0 0 1 2 2v1.09a2 2 0 0 1-2 2h-.596c-.17 5.398-3.83 9.938-8.858 11.576V37.1c9.044.953 16.091 8.604 16.091 17.9v1.09H28.175l-13.119 7.575a1.5 1.5 0 0 1-2.049-.55L1.693 43.52a.9.9 0 0 1-.084-.705l1.463-4.96zm31.054-26.127H29C29.507 5.72 34.545 1 40.685 1c6.14 0 11.178 4.719 11.685 10.727H39.608L38.281 10.4a2 2 0 0 0-2.828 0l-1.327 1.327z"/>
        <path fill="#000" d="M2.783 42.367l4.713-3.434a.5.5 0 0 0 .14-.58l-2.174-5.07-2.679 9.084zm3.585-9.663l2.189 5.257a1.5 1.5 0 0 1-.423 1.741L2.992 43.77l10.881 18.846a.5.5 0 0 0 .683.183l19.612-11.323a.5.5 0 0 0 .183-.683L19.772 25.542a.5.5 0 0 0-.683-.183L6.368 32.704zM28.175 56.09l-13.119 7.574a1.5 1.5 0 0 1-2.049-.55L1.693 43.52a.9.9 0 0 1-.084-.705l2.926-9.92a.9.9 0 0 1 .413-.525l13.641-7.876a1.5 1.5 0 0 1 2.05.549l8.31 14.395A17.896 17.896 0 0 1 37 37.027v-2.172c-5.354-1.45-9.317-6.142-9.494-11.764H27a2 2 0 0 1-2-2V20a2 2 0 0 1 2-2h.5v-1.88c0-1.207.174-2.374.5-3.48C28.047 5.653 33.727 0 40.727 0c7.03 0 12.728 5.698 12.728 12.727h-.43c.31 1.08.475 2.218.475 3.394V18h.59a2 2 0 0 1 2 2v1.09a2 2 0 0 1-2 2h-.596c-.17 5.398-3.83 9.938-8.858 11.576V37.1c9.044.953 16.091 8.604 16.091 17.9v1.09H28.175zm1.732-1h29.82V55c0-9.389-7.61-17-17-17H38c-3.117 0-6.039.839-8.55 2.304l5.767 9.99a1.5 1.5 0 0 1-.549 2.048l-4.761 2.749zm-.887-42.364a11.279 11.279 0 0 0-.52 3.394v6.577c0 6.414 5.37 11.62 12 11.62s12-5.206 12-11.62V16.12c0-1.18-.182-2.32-.52-3.394H39.236l-1.62-1.62a1 1 0 0 0-1.414 0l-1.62 1.62H29.02zM27.5 19H27a1 1 0 0 0-1 1v1.09a1 1 0 0 0 1 1h.5V19zm26 0v3.09h.59a1 1 0 0 0 1-1V20a1 1 0 0 0-1-1h-.59zm-9.864 15.948a13.4 13.4 0 0 1-3.136.37c-.855 0-1.69-.08-2.5-.233v2.006h5.636v-2.143zm-9.51-23.22l1.327-1.328a2 2 0 0 1 2.828 0l1.327 1.327H52.37C51.863 5.72 46.825 1 40.685 1 34.545 1 29.507 5.719 29 11.727h5.126zm2.594 16.686a.5.5 0 0 1 .56-.828c1.197.808 2.374 1.207 3.538 1.207 1.164 0 2.341-.399 3.539-1.207a.5.5 0 0 1 .56.828c-1.356.915-2.724 1.379-4.099 1.379-1.374 0-2.743-.464-4.098-1.379zM21.651 53.736l-5.504 3.178a.4.4 0 1 1-.4-.692l5.505-3.178a.4.4 0 0 1 .4.692zm-2.964-22.89l-5.505 3.178a.4.4 0 0 1-.4-.692l5.505-3.178a.4.4 0 0 1 .4.692zm7.101 12.3L12.71 50.699a.4.4 0 0 1-.4-.692l13.079-7.551a.4.4 0 0 1 .4.692zm-1.775-3.074l-13.078 7.55a.4.4 0 0 1-.4-.692l13.078-7.55a.4.4 0 0 1 .4.692z"/>
    </g>
</svg>
