<svg xmlns="http://www.w3.org/2000/svg" width="64" height="64" viewBox="0 0 64 64">
    <g fill="none" fill-rule="nonzero">
        <path fill="#FFF" d="M45.206 32.335c-.24.425-.693.711-1.213.711h-.535c-.25 1.035-.899 2.366-2.25 3.45v3.84c.281.09.536.266.718.525l1.4 1.996-.127.266 9.138 2.186c1.833.438 3.127 2.099 3.126 4.009v7.117c0 1.27-1.014 2.3-2.269 2.3H10.282c-1.255 0-2.27-1.03-2.27-2.3v-7.117c0-1.91 1.294-3.57 3.127-4.009l9.631-2.303-.07-.149.162-.232 1.237-1.764c.205-.292.503-.48.827-.554v-3.135l-.314-.237a5.79 5.79 0 0 1-2.248-3.889h-1.337a1.394 1.394 0 0 1-1.325-.967l-.631-.611c-.244-.237-.399-.722-.399-1.251V26.77c0-.53.155-1.014.399-1.251l.594-.576c.06-.283.207-.535.41-.726-.283-1.034-.676-1.844-1.179-2.351l-.112-.113-.023-.158a7.349 7.349 0 0 1-.045-.434c-.186-2.3.12-4.989 1.32-7.564a12.299 12.299 0 0 1 3.32-4.32l-1.46-1.007.708-.373c2.54-1.334 7.702-2.36 11.136-2.42 5.063-.087 8.74 1.97 10.004 4.43 1.553.804 2.67 2.425 3.378 4.687.466 1.49.726 3.162.826 4.89.036.603.048 1.17.045 1.686-.002.255-.007.453-.28.839l.135.126a6.084 6.084 0 0 0-1.176 1.881c.283.159.504.414.622.72l.123.12.684.663c.244.237.399.721.399 1.251v3.447c0 .53-.155 1.014-.399 1.25l-.895.868z"/>
        <path fill="#000" d="M44.961 31.903c-.24.425-.697.712-1.22.712h-.539c-.252 1.037-.904 2.37-2.264 3.456v3.848c.283.09.54.266.722.525l1.41 2-.129.267 9.197 2.19c1.845.44 3.147 2.103 3.147 4.016v7.131a2.294 2.294 0 0 1-2.284 2.306H9.811a2.294 2.294 0 0 1-2.283-2.306v-7.13c0-1.914 1.302-3.577 3.147-4.017l9.693-2.308-.071-.148.163-.233 1.246-1.768c.206-.292.506-.48.832-.555v-3.14l-.316-.238a5.795 5.795 0 0 1-2.263-3.896h-1.345a1.402 1.402 0 0 1-1.334-.969l-.635-.613c-.246-.237-.401-.722-.401-1.253v-3.453c0-.531.155-1.016.401-1.254l.598-.577a1.4 1.4 0 0 1 .412-.727c-.285-1.036-.68-1.848-1.186-2.356l-.112-.113-.024-.158a7.33 7.33 0 0 1-.045-.435c-.188-2.304.12-4.998 1.329-7.579a12.329 12.329 0 0 1 3.34-4.328l-1.469-1.01.713-.372c2.556-1.337 7.751-2.366 11.208-2.425 5.095-.087 8.796 1.974 10.069 4.438 1.562.806 2.686 2.43 3.399 4.696.47 1.493.73 3.168.832 4.9.035.604.048 1.173.044 1.689-.001.256-.007.454-.28.84l.135.127a6.091 6.091 0 0 0-1.183 1.885 1.395 1.395 0 0 0 .625.721l.124.12.688.664c.246.238.402.723.402 1.254v3.453c0 .53-.156 1.016-.402 1.253l-.9.87zm-24.028-6.404v6.173a.943.943 0 0 1-.053.31l.005.115a4.828 4.828 0 0 0 1.92 3.64l3.647 2.743a4.8 4.8 0 0 0 2.885.965h3.528c1.04 0 2.052-.339 2.885-.965l.819-.616a15.23 15.23 0 0 1-2.245.178c-.236.44-.7.74-1.235.74h-.918a1.402 1.402 0 0 1 0-2.803h.918a1.4 1.4 0 0 1 1.174.637c3.194-.02 5.12-.955 6.242-2.05.485-.725.77-1.577.811-2.47l.106-2.33v1.906a.942.942 0 0 1 0 0v-7.34c0-.52.422-.942.943-.942h1.376-.287a7.101 7.101 0 0 1 1.323-2.232 24.975 24.975 0 0 0-.035-2.074c-.097-1.659-.346-3.26-.79-4.666-.481-1.531-1.142-2.712-2.013-3.493v.006c.261 2.475-.635 4.37-2.753 5.552.863.75 1.523 1.846 2.006 3.21.428 1.21.681 2.514.806 3.77a.943.943 0 0 0-.576.87v1.243a2.235 2.235 0 0 1-.315-1.038c-.16-3.375-1.03-6.346-2.895-7.595-1.559.618-3.61.944-6.167.944-.343 0-.7-.014-1.1-.04-.309-.02-.548-.04-1.11-.088-3.109-.27-4.511-.133-6.386.977-1.072.635-1.78 1.665-2.18 3a9.414 9.414 0 0 0-.375 2.329.943.943 0 0 0 .039.268v1.166zm-2.378-2.108l.059-.001h1.355c.06-.642.18-1.295.372-1.934.466-1.55 1.313-2.782 2.614-3.553 2.097-1.242 3.668-1.394 6.964-1.109.554.049.79.068 1.089.087a16 16 0 0 0 1.037.037c6.661 0 9.325-2.148 8.932-5.886-.265-2.519-3.913-5.167-9.551-5.07-3.006.05-7.434.876-10.028 1.965l1.211.832-.545.404a11.373 11.373 0 0 0-3.57 4.376c-1.126 2.405-1.416 4.94-1.241 7.09l.02.225c.562.619.98 1.482 1.282 2.537zm1.435-.001zm.89 8.593zm11.55 15.565l-.747-.636-.747.636.06.051c-.11.06-.224.123-.341.19l-.028.023.673.322c.066.032.196.097.383.196.187-.1.317-.164.383-.196l.674-.322-.029-.024c-.117-.066-.231-.13-.341-.189l.06-.05zm7.54-7.595v-3.227a8.413 8.413 0 0 1-.822.41l-2.816 2.118a5.767 5.767 0 0 1-3.467 1.159h-3.528a5.768 5.768 0 0 1-3.467-1.159l-2.363-1.777v2.525c.1.05.196.113.285.189l7.891 6.721 7.891-6.721c.121-.103.255-.182.395-.238zm-8.287 8.377a23.8 23.8 0 0 0-1.114.627 35.008 35.008 0 0 0-3.656 2.503c-.84.654-2.1.386-2.556-.562l-3.56-7.411-9.898 2.356c-1.406.335-2.402 1.608-2.402 3.074v7.131c0 .74.59 1.337 1.315 1.337h43.19c.724 0 1.315-.597 1.315-1.337v-7.13c0-1.467-.996-2.74-2.403-3.075l-9.402-2.238-3.503 7.293c-.455.948-1.717 1.216-2.556.562a35.008 35.008 0 0 0-3.656-2.503 26.268 26.268 0 0 0-1.114-.627zm-.747-.782l-7.772-6.62a.465.465 0 0 0-.666.074l-1.082 1.536 3.814 7.94c.183.383.728.499 1.087.218a35.972 35.972 0 0 1 4.338-2.908l.281-.24zm12.397-15.901h.408c.24 0 .433-.194.433-.434v-6.422a.433.433 0 0 0-.433-.433h-1.35v7.263h.942v.026zm-10.244 6.167a.433.433 0 0 0 0-.867h-.918a.433.433 0 0 0 0 .867h.918zm-.66 9.734l.282.24a35.971 35.971 0 0 1 4.338 2.908c.36.28.904.165 1.087-.217l3.814-7.941-1.082-1.536a.465.465 0 0 0-.666-.074l-7.772 6.62zm-12.465-23.19h-1.35a.433.433 0 0 0-.434.433v6.422c0 .24.194.434.434.434h1.35v-7.289z"/>
    </g>
</svg>
