<svg xmlns="http://www.w3.org/2000/svg" width="64" height="64" viewBox="0 0 64 64">
    <g fill="none" fill-rule="nonzero">
        <path fill="#FFF" d="M37.788 55.066h11.02c1.639 0 3.054-1.46 3.054-3.141V32.457h3.067c.638 0 .918-.199 1.035-.486.112-.28.042-.629-.42-1.074L33.4 9.555A1.994 1.994 0 0 0 32.006 9c-.53 0-1.024.197-1.395.555L8.468 30.897c-.463.445-.533.795-.421 1.073.116.288.397.487 1.035.487h2.993v19.468c0 1.683 1.464 3.141 3.128 3.141h10.724V42.21h11.861v12.856z"/>
        <path fill="#000" d="M11.074 33.457H9.081c-1.055 0-1.697-.454-1.963-1.113-.263-.653-.105-1.436.655-2.167L29.916 8.835A2.993 2.993 0 0 1 32.004 8c.787 0 1.53.297 2.089.835l22.143 21.342c.76.732.917 1.514.654 2.168-.267.658-.908 1.112-1.962 1.112H52.86v18.468c0 2.226-1.855 4.141-4.054 4.141H36.787V43.21h-9.861v12.856H15.202c-2.216 0-4.128-1.904-4.128-4.141V33.457zm26.713 21.61h11.019c1.64 0 3.054-1.461 3.054-3.142V32.457h3.068c.637 0 .918-.199 1.034-.486.113-.28.042-.629-.42-1.074L33.399 9.555A1.994 1.994 0 0 0 32.004 9c-.53 0-1.023.197-1.394.555L8.466 30.897c-.462.445-.533.795-.42 1.073.116.288.397.487 1.035.487h2.993v19.468c0 1.683 1.463 3.141 3.128 3.141h10.724V42.21h11.861v12.856z"/>
    </g>
</svg>
