<svg xmlns="http://www.w3.org/2000/svg" width="64" height="64" viewBox="0 0 64 64">
    <g fill="none" fill-rule="nonzero">
        <path fill="#FFF" d="M50.8 45.26v.24h-.252L39.5 55.958v.07h-.08a.9.9 0 0 1-.553.19H14a1.5 1.5 0 0 1-1.5-1.5V9A1.5 1.5 0 0 1 14 7.5h35.93a1.5 1.5 0 0 1 1.5 1.5v35.278a.9.9 0 0 1-.282.654l-.347.329z"/>
        <path fill="#000" d="M22.229 18.095l4.995-4.995a.5.5 0 0 1 .707 0l.158.158a.5.5 0 0 1 0 .707l-5.349 5.35a.499.499 0 0 1-.144.1l-.035.035a.5.5 0 0 1-.707 0L19.1 16.697a.5.5 0 0 1 0-.708l.158-.158a.5.5 0 0 1 .707 0l2.264 2.264zm28.572 27.166v.239h-.253L39.5 55.958v.07h-.08a.9.9 0 0 1-.553.19H14a1.5 1.5 0 0 1-1.5-1.5V9A1.5 1.5 0 0 1 14 7.5h35.93a1.5 1.5 0 0 1 1.5 1.5v35.278a.9.9 0 0 1-.282.654l-.347.329zm-.651-.761l.28-.265V9a.5.5 0 0 0-.5-.5H14a.5.5 0 0 0-.5.5v45.718a.5.5 0 0 0 .5.5h24.5V46a1.5 1.5 0 0 1 1.5-1.5h10.15zm-1.057 1H40a.5.5 0 0 0-.5.5v8.581l9.593-9.081zM33.5 15h10.012a.5.5 0 0 1 .5.5v.224a.5.5 0 0 1-.5.5H33.5a.5.5 0 0 1-.5-.5V15.5a.5.5 0 0 1 .5-.5zm-14 33h10.012a.5.5 0 0 1 .5.5v.224a.5.5 0 0 1-.5.5H19.5a.5.5 0 0 1-.5-.5V48.5a.5.5 0 0 1 .5-.5zm0-22h23.47a.5.5 0 0 1 .5.5v.224a.5.5 0 0 1-.5.5H19.5a.5.5 0 0 1-.5-.5V26.5a.5.5 0 0 1 .5-.5zm0 6h23.47a.5.5 0 0 1 .5.5v.224a.5.5 0 0 1-.5.5H19.5a.5.5 0 0 1-.5-.5V32.5a.5.5 0 0 1 .5-.5z"/>
    </g>
</svg>
