<svg xmlns="http://www.w3.org/2000/svg" width="64" height="64" viewBox="0 0 64 64">
    <g fill="none" fill-rule="nonzero">
        <path fill="#FFF" d="M43.476 29.87l-.676.183-.26-.966.713-.192a11.694 11.694 0 0 0-7.926-8.084l-.166.433-.934-.356.123-.322a11.723 11.723 0 0 0-3.945-.128l.122.272-.912.409-.223-.497a11.69 11.69 0 0 0-8.65 8.296l.628.17-.26.965-.59-.16a11.738 11.738 0 0 0 .09 4.665l.5-.135.26.966-.499.134a11.692 11.692 0 0 0 8.48 7.845l.142-.374.935.356-.078.204a11.77 11.77 0 0 0 3.977-.116l.713-.319.06.135a11.695 11.695 0 0 0 8.022-7.708l-.583-.157.261-.966.584.158a11.737 11.737 0 0 0 .092-4.71zm-2.694 26.078l-.913.409-.037-.082A25.482 25.482 0 0 1 32 57.5C17.917 57.5 6.5 46.083 6.5 32S17.917 6.5 32 6.5 57.5 17.917 57.5 32c0 10.997-6.962 20.369-16.718 23.948z"/>
        <path fill="#000" d="M55.885 26.52l-12.409 3.35a11.737 11.737 0 0 1-.092 4.71l12.394 3.348c.472-1.899.722-3.884.722-5.928 0-1.884-.213-3.718-.615-5.48zm-.243-.97c-2.138-7.854-8.085-14.138-15.733-16.745L35.327 20.81a11.694 11.694 0 0 1 7.926 8.084l12.389-3.346zm-.125 13.343l-12.395-3.347a11.695 11.695 0 0 1-8.022 7.708l5.272 11.778c7.282-2.647 12.954-8.65 15.145-16.14zM8.11 26.543A24.58 24.58 0 0 0 7.5 32c0 2.036.248 4.013.716 5.905l12.395-3.347a11.738 11.738 0 0 1-.092-4.664L8.11 26.542zm.242-.97l12.39 3.345a11.69 11.69 0 0 1 8.65-8.296l-5.29-11.821c-7.661 2.608-13.617 8.903-15.75 16.771zm.124 13.297a24.554 24.554 0 0 0 16.278 16.54l4.596-12.042a11.692 11.692 0 0 1-8.479-7.845L8.476 38.87zM25.72 55.687c2.005.53 4.11.813 6.281.813 2.587 0 5.08-.4 7.421-1.144l-5.294-11.829.2-.089a11.724 11.724 0 0 1-3.977.116l-4.63 12.133zm15.063.261l-.913.409-.037-.082A25.482 25.482 0 0 1 32 57.5C17.917 57.5 6.5 46.083 6.5 32S17.917 6.5 32 6.5 57.5 17.917 57.5 32c0 10.997-6.962 20.369-16.718 23.948zM38.954 8.501A24.506 24.506 0 0 0 32 7.5c-2.41 0-4.739.348-6.94.997l5.345 11.94a11.775 11.775 0 0 1 3.945.13L38.954 8.5zM32 42.671c5.893 0 10.67-4.778 10.67-10.671S37.893 21.33 32 21.33 21.33 26.107 21.33 32 26.107 42.67 32 42.67z"/>
    </g>
</svg>
