<svg xmlns="http://www.w3.org/2000/svg" width="64" height="64" viewBox="0 0 64 64">
    <g fill="none" fill-rule="evenodd">
        <path fill="#FFF" d="M11.202 8.845L61.39 22.292a2 2 0 0 1 1.414 2.45L55.204 53.1a2 2 0 0 1-2.45 1.414L2.569 41.067a2 2 0 0 1-1.414-2.45L8.753 10.26a2 2 0 0 1 2.45-1.414z"/>
        <path fill="#000" d="M60.284 30.278l1.553-5.795a1 1 0 0 0-.707-1.225L10.943 9.811a1 1 0 0 0-1.224.707l-1.553 5.795 52.118 13.965zm-.259.966L7.907 17.28 2.12 38.876a1 1 0 0 0 .707 1.225l50.187 13.447a1 1 0 0 0 1.224-.707l5.787-21.597zm-48.823-22.4L61.39 22.293a2 2 0 0 1 1.414 2.45L55.204 53.1a2 2 0 0 1-2.45 1.414L2.569 41.067a2 2 0 0 1-1.414-2.45L8.753 10.26a2 2 0 0 1 2.45-1.414zm-.605 21.58l4.304 1.153a1 1 0 0 1 .707 1.224l-1.153 4.305a1 1 0 0 1-1.225.707L8.926 36.66a1 1 0 0 1-.708-1.225l1.154-4.305a1 1 0 0 1 1.225-.707zm-.26.965l-1.153 4.305 4.305 1.153 1.154-4.304-4.305-1.154z"/>
    </g>
</svg>
