<svg xmlns="http://www.w3.org/2000/svg" width="64" height="64" viewBox="0 0 64 64">
    <g fill="none" fill-rule="nonzero">
        <path fill="#FFF" d="M41.727 7.728a12.687 12.687 0 0 0-9-3.728C25.698 4 20 9.698 20 16.727h6.582l1.62-1.62a1 1 0 0 1 1.414 0l1.62 1.62h14.219-.43c.31 1.08.475 2.218.475 3.394V22h.59a2 2 0 0 1 2 2v1.09a2 2 0 0 1-2 2h-.596c-.17 5.398-3.83 9.938-8.858 11.576V41.1c9.044.953 16.091 8.604 16.091 17.9v1.09H12V59c0-9.606 7.524-17.454 17-17.973v-2.172c-5.354-1.45-9.317-6.142-9.494-11.764H19a2 2 0 0 1-2-2V24a2 2 0 0 1 2-2h.5v-1.88c0-1.207.174-2.374.5-3.48C20.047 9.653 25.727 4 32.727 4c3.515 0 6.697 1.425 9 3.728zm-15.601 8H21C21.507 9.717 26.545 5 32.685 5c6.14 0 11.178 4.719 11.685 10.727H31.608L30.281 14.4a2 2 0 0 0-2.828 0l-1.327 1.327z"/>
        <path fill="#000" d="M20 16.64C20.047 9.653 25.727 4 32.727 4c7.03 0 12.728 5.698 12.728 12.727h-.43c.31 1.08.475 2.218.475 3.394V22h.59a2 2 0 0 1 2 2v1.09a2 2 0 0 1-2 2h-.596c-.17 5.398-3.83 9.938-8.858 11.576V41.1c9.044.953 16.091 8.604 16.091 17.9v1.09H12V59c0-9.606 7.524-17.454 17-17.973v-2.172c-5.354-1.45-9.317-6.142-9.494-11.764H19a2 2 0 0 1-2-2V24a2 2 0 0 1 2-2h.5v-1.88c0-1.207.174-2.374.5-3.48zm1.02.087a11.279 11.279 0 0 0-.52 3.394v6.577c0 6.414 5.37 11.62 12 11.62s12-5.206 12-11.62V20.12c0-1.18-.182-2.32-.52-3.394H31.236l-1.62-1.62a1 1 0 0 0-1.414 0l-1.62 1.62H21.02zM19.5 23H19a1 1 0 0 0-1 1v1.09a1 1 0 0 0 1 1h.5V23zm26 0v3.09h.59a1 1 0 0 0 1-1V24a1 1 0 0 0-1-1h-.59zm-9.864 15.948a13.4 13.4 0 0 1-3.136.37c-.855 0-1.69-.08-2.5-.233v2.006h5.636v-2.143zM30 42c-9.389 0-17 7.611-17 17v.09h38.727V59c0-9.389-7.61-17-17-17H30zm-3.874-26.273l1.327-1.327a2 2 0 0 1 2.828 0l1.327 1.327H44.37C43.863 9.72 38.825 5 32.685 5 26.545 5 21.507 9.719 21 15.727h5.126zm2.594 16.687a.5.5 0 0 1 .56-.828c1.197.808 2.374 1.207 3.538 1.207 1.164 0 2.341-.399 3.539-1.207a.5.5 0 0 1 .56.828c-1.356.915-2.724 1.379-4.099 1.379-1.374 0-2.743-.464-4.098-1.379z"/>
    </g>
</svg>
