<svg xmlns="http://www.w3.org/2000/svg" width="64" height="64" viewBox="0 0 64 64">
    <g fill="none" fill-rule="nonzero">
        <path fill="#FFF" d="M27.13 28.07l8.66-5 19.025 32.944c.443.768.164 1.76-.623 2.214l-5.808 3.353c-.788.455-1.786.201-2.23-.567L27.131 28.069zm13.695-8.827c-.975-1.1-2.623-1.367-3.935-.61-1.313.758-1.904 2.319-1.44 3.713.1.3.213.541.34.722l-8.66 5c-.397-.15-.68-.4-.848-.75a9.729 9.729 0 0 0-.348-.661c-2.68-4.64-8.664-6.206-13.37-3.489a9.875 9.875 0 0 0-3.824 3.973 1 1 0 0 1-1.751.035l-1.665-2.884a2.647 2.647 0 0 1 .968-3.616L26.59 8.958a1 1 0 0 1 1.248.202c.975 1.1 2.623 1.367 3.935.61 1.313-.758 1.904-2.319 1.44-3.713a1 1 0 0 1 .45-1.182l4.419-2.551a2.647 2.647 0 0 1 3.616.968l5.764 9.985a2.647 2.647 0 0 1-.969 3.616l-4.419 2.552a1 1 0 0 1-1.248-.202z"/>
        <path fill="#000" d="M28 27.57l19 32.909c.179.31.575.415.884.236l5.808-3.353a.647.647 0 0 0 .236-.883l-19-32.91-6.928 4zm-.87.5l8.66-5 19.025 32.944c.443.768.164 1.76-.623 2.214l-5.808 3.353c-.788.455-1.786.201-2.23-.567L27.131 28.069zm13.695-8.827c-.975-1.1-2.623-1.367-3.935-.61-1.313.758-1.904 2.319-1.44 3.713.1.3.213.541.34.722l-8.66 5c-.397-.15-.68-.4-.848-.75a9.729 9.729 0 0 0-.348-.661c-2.68-4.64-8.664-6.206-13.37-3.489a9.875 9.875 0 0 0-3.824 3.973 1 1 0 0 1-1.751.035l-1.665-2.884a2.647 2.647 0 0 1 .968-3.616L26.59 8.958a1 1 0 0 1 1.248.202c.975 1.1 2.623 1.367 3.935.61 1.313-.758 1.904-2.319 1.44-3.713a1 1 0 0 1 .45-1.182l4.419-2.551a2.647 2.647 0 0 1 3.616.968l5.764 9.985a2.647 2.647 0 0 1-.969 3.616l-4.419 2.552a1 1 0 0 1-1.248-.202zm.748-.664l4.42-2.552a1.647 1.647 0 0 0 .602-2.25l-5.764-9.985a1.647 1.647 0 0 0-2.25-.602L34.16 5.74c.606 1.82-.143 3.887-1.889 4.894-1.746 1.008-3.91.624-5.183-.81L6.792 21.541a1.647 1.647 0 0 0-.602 2.25l1.665 2.884c.925-1.764 2.35-3.3 4.21-4.374 5.181-2.991 11.778-1.265 14.735 3.855.138.24.266.483.384.729l7.317-4.224c-.606-1.82.143-3.887 1.889-4.895 1.746-1.007 3.909-.623 5.183.812zm-9.985 15.206l.5.866 6.929-4-.5-.866-6.929 4z"/>
    </g>
</svg>
