<svg xmlns="http://www.w3.org/2000/svg" width="88" height="86" viewBox="0 0 88 86">
    <g fill="none" fill-rule="evenodd">
        <path fill="#FFF" fill-rule="nonzero" d="M66.869 79.014l-1.419 1.401a1 1 0 0 1-.293.2l-11.455 5.143c-.843.378-1.705-.491-1.318-1.33l2.491-5.414H3.921A3.917 3.917 0 0 1 0 75.101V13.914A3.917 3.917 0 0 1 3.921 10h70.107a3.917 3.917 0 0 1 3.921 3.914V52.92l1.835-1.812a2.486 2.486 0 0 1 3.488 0l4.165 4.114c.972.96.972 2.52 0 3.48l-9.488 9.37V75.1a3.917 3.917 0 0 1-3.92 3.914h-7.16z"/>
        <path fill="#000" fill-rule="nonzero" d="M75.95 54.895V21H2v54.1c0 1.057.86 1.914 1.921 1.914h51.875l1.795-3.9a1 1 0 0 1 .206-.293l18.152-17.926zm2-1.975l1.834-1.812a2.486 2.486 0 0 1 3.488 0l4.165 4.114c.972.96.972 2.52 0 3.48l-9.488 9.37V75.1a3.917 3.917 0 0 1-3.92 3.914h-7.16l-1.419 1.401a1 1 0 0 1-.293.2l-11.455 5.143c-.843.378-1.705-.491-1.318-1.33l2.491-5.414H3.921A3.917 3.917 0 0 1 0 75.101V13.914A3.917 3.917 0 0 1 3.921 10h70.107a3.917 3.917 0 0 1 3.921 3.914V52.92zm-2 17.127l-7.056 6.967h5.134A1.917 1.917 0 0 0 75.95 75.1v-5.053zM2 19h73.95v-5.086c0-1.057-.86-1.914-1.922-1.914H3.921A1.917 1.917 0 0 0 2 13.914V19zm4.577-4.314h.01c.523 0 .947.425.947.95a.948.948 0 1 1-1.899 0c0-.525.42-.95.942-.95zm11.504 0h.01c.523 0 .947.425.947.95a.948.948 0 1 1-1.899 0c0-.525.42-.95.942-.95zm-5.696 0h.01c.523 0 .947.425.947.95a.948.948 0 1 1-1.899 0c0-.525.419-.95.942-.95zm3.407 19.899a3.792 3.792 0 1 1 0-7.585 3.792 3.792 0 0 1 0 7.585zm0-2a1.792 1.792 0 1 0 0-3.585 1.792 1.792 0 0 0 0 3.585zm0 19a3.792 3.792 0 1 1 0-7.585 3.792 3.792 0 0 1 0 7.585zm0-2a1.792 1.792 0 1 0 0-3.585 1.792 1.792 0 0 0 0 3.585zm.154 19.233c-2.177 0-3.946-1.748-3.946-3.91C12 62.749 13.77 61 15.946 61s3.945 1.747 3.945 3.909c0 2.161-1.77 3.909-3.945 3.909zm0-2c1.077 0 1.945-.858 1.945-1.91 0-1.05-.868-1.908-1.945-1.908-1.078 0-1.946.857-1.946 1.909 0 1.051.868 1.909 1.946 1.909zm50.031-36.83c.755 0 1.367.424 1.367.949 0 .524-.612.95-1.367.95H25.152c-.755 0-1.367-.426-1.367-.95 0-.525.612-.95 1.367-.95h40.825zm1.367 18.037c0 .525-.612.95-1.367.95H25.152c-.755 0-1.367-.425-1.367-.95 0-.524.612-.95 1.367-.95h40.825c.755 0 1.367.426 1.367.95zM53.941 65.114c0 .524-.606.95-1.354.95H25.139c-.748 0-1.354-.426-1.354-.95s.606-.95 1.354-.95h27.448c.748 0 1.354.426 1.354.95zm32.091-7.835a.442.442 0 0 0 0-.634l-4.166-4.114a.486.486 0 0 0-.677 0L59.33 74.116l-4.015 8.725 8.857-3.976L86.032 57.28z"/>
        <path fill="#43B198" d="M86.032 57.279a.442.442 0 0 0 0-.634l-4.166-4.114a.486.486 0 0 0-.677 0L59.33 74.116l-4.015 8.725 8.857-3.976L86.032 57.28z"/>
    </g>
</svg>
