<svg xmlns="http://www.w3.org/2000/svg" xmlns:xlink="http://www.w3.org/1999/xlink" width="85" height="85" viewBox="0 0 85 85">
    <defs>
        <path id="a" d="M45.215 26.787a1.395 1.395 0 0 0-1.972 0L26.789 43.241a1.395 1.395 0 0 0 1.972 1.972L45.215 28.76a1.395 1.395 0 0 0 0-1.972z"/>
        <path id="b" d="M50.167 38.99a1.395 1.395 0 0 0-1.972 0L35.366 51.82a1.395 1.395 0 0 0 1.973 1.972l12.828-12.829a1.395 1.395 0 0 0 0-1.972z"/>
    </defs>
    <g fill="none" fill-rule="nonzero">
        <path fill="#FFF" d="M9.716 50.713l23.57 23.57a3.173 3.173 0 0 0 4.483 0L67.792 44.26a3.15 3.15 0 0 0 .888-1.741l4.488-28.057a3.137 3.137 0 0 0-.89-2.743 3.132 3.132 0 0 0-2.741-.888L41.48 15.318a3.152 3.152 0 0 0-1.741.889L9.716 46.23a3.174 3.174 0 0 0 0 4.483z"/>
        <path fill="#000" d="M10.408 46.951l30.038-30.037a2.152 2.152 0 0 1 1.192-.609l28.057-4.487a2.132 2.132 0 0 1 1.877.608c.5.501.72 1.179.608 1.878L67.693 42.36a2.15 2.15 0 0 1-.608 1.192L37.062 73.576a2.173 2.173 0 0 1-3.069 0l-23.57-23.57a2.174 2.174 0 0 1-.015-3.055zm.308-3.135l-1.707 1.707a4.174 4.174 0 0 0 0 5.897l23.57 23.57a4.173 4.173 0 0 0 5.897 0l30.023-30.023a4.15 4.15 0 0 0 1.169-2.29l4.487-28.057a4.137 4.137 0 0 0-1.169-3.608 4.132 4.132 0 0 0-3.607-1.169l-28.057 4.488a4.152 4.152 0 0 0-2.29 1.169L10.716 43.816z"/>
        <path fill="#DBEFEA" d="M64.285 21.945c1.23 0 2.23-1.001 2.23-2.231s-1-2.231-2.23-2.231-2.231 1-2.231 2.23 1 2.232 2.23 2.232z"/>
        <path fill="#000" d="M64.285 20.945a1.234 1.234 0 0 1-1.231-1.231c0-.678.553-1.231 1.23-1.231.679 0 1.232.553 1.232 1.23 0 .679-.553 1.232-1.231 1.232zm0 2a3.234 3.234 0 0 0 3.23-3.231 3.234 3.234 0 0 0-3.23-3.231 3.234 3.234 0 0 0-3.231 3.23 3.234 3.234 0 0 0 3.23 3.232z"/>
        <g transform="matrix(-1 0 0 1 75 9)">
            <use fill="#4DAF96" fill-rule="evenodd" xlink:href="#a"/>
            <path stroke="#000" stroke-width="2" d="M45.922 26.08a2.395 2.395 0 0 1 0 3.386L29.468 45.921a2.39 2.39 0 0 1-1.693.7 2.395 2.395 0 0 1-1.693-4.088l16.454-16.453a2.395 2.395 0 0 1 3.386 0z"/>
        </g>
        <g transform="matrix(-1 0 0 1 75 9)">
            <use fill="#4DAF96" fill-rule="evenodd" xlink:href="#b"/>
            <path stroke="#000" stroke-width="2" d="M50.874 38.283a2.395 2.395 0 0 1 0 3.387L38.046 54.498a2.39 2.39 0 0 1-1.694.701 2.395 2.395 0 0 1-1.693-4.088l12.83-12.828a2.395 2.395 0 0 1 3.385 0z"/>
        </g>
    </g>
</svg>
