<svg xmlns="http://www.w3.org/2000/svg" xmlns:xlink="http://www.w3.org/1999/xlink" width="260" height="260" viewBox="0 0 260 260">
    <defs>
        <rect id="b" width="155" height="135" x="29" y="68" rx="16"/>
        <filter id="a" width="185.2%" height="197.8%" x="-42.6%" y="-40%" filterUnits="objectBoundingBox">
            <feOffset dy="12" in="SourceAlpha" result="shadowOffsetOuter1"/>
            <feGaussianBlur in="shadowOffsetOuter1" result="shadowBlurOuter1" stdDeviation="20"/>
            <feComposite in="shadowBlurOuter1" in2="SourceAlpha" operator="out" result="shadowBlurOuter1"/>
            <feColorMatrix in="shadowBlurOuter1" values="0 0 0 0 0.0288678134 0 0 0 0 0.134281911 0 0 0 0 0.190502764 0 0 0 0.5 0"/>
        </filter>
        <rect id="c" width="212" height="212" rx="16"/>
    </defs>
    <g fill="none" fill-rule="evenodd">
        <g transform="translate(24 24)">
            <use fill="#000" filter="url(#a)" xlink:href="#b"/>
            <use fill="#F5F5F5" xlink:href="#b"/>
            <rect width="154" height="134" x="29.5" y="68.5" stroke="#D8D8D9" rx="16"/>
        </g>
        <g transform="translate(24 24)">
            <use fill="#B9EADF" xlink:href="#c"/>
            <rect width="211" height="211" x=".5" y=".5" stroke="#62C3B5" rx="16"/>
        </g>
        <path fill="#FFF" d="M180 99.719v50.22c0 5.897-4.8 10.718-10.654 10.718h-26.544l-9.715 9.616c-1.764 1.743-4.598 1.727-6.318-.044l-9.383-9.572H90.67c-5.87 0-10.669-4.82-10.669-10.718V99.72C80 93.822 84.8 89 90.67 89h78.676C175.2 89 180 93.822 180 99.719"/>
        <path stroke="#101111" stroke-linecap="round" stroke-linejoin="round" stroke-width="2" d="M180 99.719v50.22c0 5.897-4.8 10.718-10.654 10.718h-26.544l-9.715 9.616c-1.764 1.743-4.598 1.727-6.318-.044l-9.383-9.572H90.67c-5.87 0-10.669-4.82-10.669-10.718V99.72C80 93.822 84.8 89 90.67 89h78.676C175.2 89 180 93.822 180 99.719z"/>
        <path fill="#E64C3C" d="M130.44 144.963c10.926-7.709 16.393-14.76 18.964-20.138 3.002-6.284.39-14.074-6.162-16.688-7.702-3.071-12.802 4.015-12.802 4.015s-5.064-7.105-12.765-4.033c-6.552 2.615-9.164 10.405-6.161 16.689 2.57 5.377 8 12.447 18.926 20.155"/>
        <path stroke="#000" stroke-width="1.555" d="M130.44 144.963c10.926-7.709 16.393-14.76 18.964-20.138 3.002-6.284.39-14.074-6.162-16.688-7.702-3.071-12.802 4.015-12.802 4.015s-5.064-7.105-12.765-4.033c-6.552 2.615-9.164 10.405-6.161 16.689 2.57 5.377 8 12.447 18.926 20.155z"/>
    </g>
</svg>
