<svg xmlns="http://www.w3.org/2000/svg" width="85" height="85" viewBox="0 0 85 85">
    <g fill="none" fill-rule="evenodd">
        <path fill="#FFF" fill-rule="nonzero" d="M22.308 58.524h7.333a1 1 0 0 1 1 1v8.963h21.308a1 1 0 0 1 .98.804l1.89 9.452H64v-2.68a2 2 0 0 1 2-2h8.308a2 2 0 0 1 2 2v2.68h3.877a1 1 0 0 1 0 2h-3.877v1.781a2 2 0 0 1-2 2H66a2 2 0 0 1-2-2v-1.781H53.999a1 1 0 0 1-.98-.804l-1.89-9.452H29.64a1 1 0 0 1-1-1v-8.963h-6.333v6.758a2 2 0 0 1-2 2H12a2 2 0 0 1-2-2v-6.758H4a1 1 0 0 1 0-2h6v-5.18H4a1 1 0 1 1 0-2h6v-6.241H4a1 1 0 1 1 0-2h6v-7.205H4a1 1 0 0 1 0-2h6v-7.23H4a1 1 0 0 1 0-2h6V20a2 2 0 0 1 2-2h8.308a2 2 0 0 1 2 2v4.667H34.28v-4.203H29.64a1 1 0 0 1-1-1v-8.93a1 1 0 0 1 1-1h5.966V3a1 1 0 1 1 2 0v7.534a1 1 0 0 1-1 1H30.64v6.93h4.641a1 1 0 0 1 1 1v6.203a1 1 0 0 1-1 1H22.308v7.23h19.666V10.77a1 1 0 0 1 1-1H62.76a1 1 0 0 1 1 1v10.272a1 1 0 0 1-1 1H51.368v12.097h29.303a1 1 0 0 1 0 2H50.368a1 1 0 0 1-1-1V21.041a1 1 0 0 1 1-1H61.76v-8.272H43.974v23.129a1 1 0 0 1-1 1H22.308v7.205H34v-2.04a2 2 0 0 1 2-2h8.308a2 2 0 0 1 2 2v2.04h34.359a1 1 0 0 1 0 2h-34.36v2.421a2 2 0 0 1-2 2H36a2 2 0 0 1-2-2v-2.421H22.308v6.242h21.18a1 1 0 0 1 1 1v5.928h21.127v-5.965a1 1 0 0 1 1-1h13.798a1 1 0 1 1 0 2H67.615v5.965a1 1 0 0 1-1 1H43.488a1 1 0 0 1-1-1v-5.928h-20.18v5.18z"/>
        <path fill="#000" fill-rule="nonzero" d="M22.308 58.524h7.333a1 1 0 0 1 1 1v8.963h21.308a1 1 0 0 1 .98.804l1.89 9.452H64v-2.68a2 2 0 0 1 2-2h8.308a2 2 0 0 1 2 2v2.68h3.877a1 1 0 0 1 0 2h-3.877v1.781a2 2 0 0 1-2 2H66a2 2 0 0 1-2-2v-1.781H53.999a1 1 0 0 1-.98-.804l-1.89-9.452H29.64a1 1 0 0 1-1-1v-8.963h-6.333v6.758a2 2 0 0 1-2 2H12a2 2 0 0 1-2-2v-6.758H4a1 1 0 0 1 0-2h6v-5.18H4a1 1 0 1 1 0-2h6v-6.241H4a1 1 0 1 1 0-2h6v-7.205H4a1 1 0 0 1 0-2h6v-7.23H4a1 1 0 0 1 0-2h6V20a2 2 0 0 1 2-2h8.308a2 2 0 0 1 2 2v4.667H34.28v-4.203H29.64a1 1 0 0 1-1-1v-8.93a1 1 0 0 1 1-1h5.966V3a1 1 0 1 1 2 0v7.534a1 1 0 0 1-1 1H30.64v6.93h4.641a1 1 0 0 1 1 1v6.203a1 1 0 0 1-1 1H22.308v7.23h19.666V10.77a1 1 0 0 1 1-1H62.76a1 1 0 0 1 1 1v10.272a1 1 0 0 1-1 1H51.368v12.097h29.303a1 1 0 0 1 0 2H50.368a1 1 0 0 1-1-1V21.041a1 1 0 0 1 1-1H61.76v-8.272H43.974v23.129a1 1 0 0 1-1 1H22.308v7.205H34v-2.04a2 2 0 0 1 2-2h8.308a2 2 0 0 1 2 2v2.04h34.359a1 1 0 0 1 0 2h-34.36v2.421a2 2 0 0 1-2 2H36a2 2 0 0 1-2-2v-2.421H22.308v6.242h21.18a1 1 0 0 1 1 1v5.928h21.127v-5.965a1 1 0 0 1 1-1h13.798a1 1 0 1 1 0 2H67.615v5.965a1 1 0 0 1-1 1H43.488a1 1 0 0 1-1-1v-5.928h-20.18v5.18zM36 41.064v6.46h8.308v-6.46H36zm30 35v6.46h8.308v-6.46H66zM12 20v47.282h8.308V20H12z"/>
        <path fill="#4DAF96" d="M12 20v47.282h8.308V20z"/>
    </g>
</svg>
