<svg xmlns="http://www.w3.org/2000/svg" width="64" height="64" viewBox="0 0 64 64">
    <g fill="#FFF" fill-rule="evenodd">
        <path fill-opacity=".3" d="M26.53 49.126l-3.615 3.615a3 3 0 0 1-4.242 0L13.89 47.96C6.371 45.23 1 38.024 1 29.563 1 18.76 9.759 10 20.563 10h22.874C54.24 10 63 18.759 63 29.563c0 10.804-8.759 19.563-19.563 19.563H26.53z"/>
        <path fill-rule="nonzero" d="M21.501 51.327l4.201-4.2h17.735c9.7 0 17.563-7.864 17.563-17.564S53.137 12 43.437 12H20.563C10.863 12 3 19.863 3 29.563a17.57 17.57 0 0 0 11.572 16.515l.418.152 5.097 5.097a1 1 0 0 0 1.414 0zm1.414 1.414a3 3 0 0 1-4.242 0L13.89 47.96C6.371 45.23 1 38.024 1 29.563 1 18.76 9.759 10 20.563 10h22.874C54.24 10 63 18.759 63 29.563c0 10.804-8.759 19.563-19.563 19.563H26.53l-3.615 3.615zM18 27a3 3 0 1 0 0 6 3 3 0 0 0 0-6zm14 0a3 3 0 1 0 0 6 3 3 0 0 0 0-6zm14 0a3 3 0 1 0 0 6 3 3 0 0 0 0-6z"/>
    </g>
</svg>
