<svg xmlns="http://www.w3.org/2000/svg" xmlns:xlink="http://www.w3.org/1999/xlink" width="260" height="260" viewBox="0 0 260 260">
    <defs>
        <rect id="b" width="165" height="100" x="24" y="112" rx="16"/>
        <filter id="a" width="129.1%" height="148%" x="-14.5%" y="-12%" filterUnits="objectBoundingBox">
            <feOffset dy="12" in="SourceAlpha" result="shadowOffsetOuter1"/>
            <feGaussianBlur in="shadowOffsetOuter1" result="shadowBlurOuter1" stdDeviation="6"/>
            <feComposite in="shadowBlurOuter1" in2="SourceAlpha" operator="out" result="shadowBlurOuter1"/>
            <feColorMatrix in="shadowBlurOuter1" values="0 0 0 0 0.0980392157 0 0 0 0 0.345098039 0 0 0 0 0.309803922 0 0 0 0.2 0"/>
        </filter>
        <rect id="c" width="212" height="212" rx="16"/>
    </defs>
    <g fill="none" fill-rule="evenodd">
        <g transform="translate(24 24)">
            <use fill="#000" filter="url(#a)" xlink:href="#b"/>
            <use fill="#F5F5F5" xlink:href="#b"/>
            <rect width="164" height="99" x="24.5" y="112.5" stroke="#D8D8D9" rx="16"/>
        </g>
        <g transform="translate(24 24)">
            <use fill="#B9EADF" xlink:href="#c"/>
            <rect width="211" height="211" x=".5" y=".5" stroke="#62C3B5" rx="16"/>
        </g>
        <path fill="#FFF" d="M86.317 81h51.852c2.96 0 5.382 2.489 5.382 5.53v2.024c0 3.041-2.422 5.53-5.382 5.53H86.317c-2.96 0-5.382-2.489-5.382-5.53V86.53c0-3.041 2.422-5.53 5.382-5.53M86.317 121h51.852c2.96 0 5.382 2.489 5.382 5.53v2.024c0 3.041-2.422 5.53-5.382 5.53H86.317c-2.96 0-5.382-2.489-5.382-5.53v-2.024c0-3.041 2.422-5.53 5.382-5.53"/>
        <path stroke="#101111" stroke-linecap="round" stroke-linejoin="round" stroke-width="2" d="M86.317 81h51.852c2.96 0 5.382 2.489 5.382 5.53v2.024c0 3.041-2.422 5.53-5.382 5.53H86.317c-2.96 0-5.382-2.489-5.382-5.53V86.53c0-3.041 2.422-5.53 5.382-5.53z"/>
        <path fill="#FFF" d="M105.943 94.084h51.852c2.96 0 5.383 2.489 5.383 5.53v2.024c0 3.041-2.422 5.53-5.383 5.53h-51.852c-2.96 0-5.382-2.489-5.382-5.53v-2.024c0-3.041 2.422-5.53 5.382-5.53"/>
        <path stroke="#101111" stroke-linecap="round" stroke-linejoin="round" stroke-width="2" d="M105.943 94.084h51.852c2.96 0 5.383 2.489 5.383 5.53v2.024c0 3.041-2.422 5.53-5.383 5.53h-51.852c-2.96 0-5.382-2.489-5.382-5.53v-2.024c0-3.041 2.422-5.53 5.382-5.53z"/>
        <path fill="#FFF" d="M86.317 107.168h51.852c2.96 0 5.382 2.49 5.382 5.53v2.024c0 3.04-2.422 5.53-5.382 5.53H86.317c-2.96 0-5.382-2.49-5.382-5.53v-2.024c0-3.04 2.422-5.53 5.382-5.53"/>
        <path stroke="#101111" stroke-linecap="round" stroke-linejoin="round" stroke-width="2" d="M86.382 107h51.852c2.96 0 5.383 2.49 5.383 5.53v2.024c0 3.04-2.422 5.53-5.383 5.53H86.382c-2.96 0-5.382-2.49-5.382-5.53v-2.024c0-3.04 2.422-5.53 5.382-5.53zM86.317 120.252h51.852c2.96 0 5.382 2.49 5.382 5.53v2.025c0 3.04-2.422 5.53-5.382 5.53H86.317c-2.96 0-5.382-2.49-5.382-5.53v-2.024c0-3.042 2.422-5.53 5.382-5.53z"/>
        <path fill="#FFF" d="M86.317 131.467h51.852c2.96 0 5.382 2.489 5.382 5.53v2.025c0 3.04-2.422 5.53-5.382 5.53H86.317c-2.96 0-5.382-2.49-5.382-5.53v-2.024c0-3.042 2.422-5.53 5.382-5.53"/>
        <path stroke="#101111" stroke-linecap="round" stroke-linejoin="round" stroke-width="2" d="M86.317 132.402h51.852c2.96 0 5.382 2.489 5.382 5.53v2.024c0 3.041-2.422 5.53-5.382 5.53H86.317c-2.96 0-5.382-2.489-5.382-5.53v-2.024c0-3.041 2.422-5.53 5.382-5.53z"/>
        <path fill="#FFF" d="M85.382 145.486h51.852c2.96 0 5.383 2.489 5.383 5.53v2.024c0 3.041-2.422 5.53-5.383 5.53H85.382c-2.96 0-5.382-2.489-5.382-5.53v-2.023c0-3.042 2.422-5.531 5.382-5.531"/>
        <path stroke="#101111" stroke-linecap="round" stroke-linejoin="round" stroke-width="2" d="M85.382 145.486h51.852c2.96 0 5.383 2.489 5.383 5.53v2.024c0 3.041-2.422 5.53-5.383 5.53H85.382c-2.96 0-5.382-2.489-5.382-5.53v-2.023c0-3.042 2.422-5.531 5.382-5.531z"/>
        <path fill="#FFF" d="M179.065 144.822c0 18.324-14.854 33.178-33.178 33.178-18.323 0-33.177-14.854-33.177-33.178 0-18.323 14.854-33.177 33.177-33.177 18.324 0 33.178 14.854 33.178 33.177"/>
        <path stroke="#101111" stroke-linecap="round" stroke-linejoin="round" stroke-width="2" d="M179.065 145.018c0 18.324-14.854 33.178-33.178 33.178-18.323 0-33.177-14.854-33.177-33.178 0-18.323 14.854-33.177 33.177-33.177 18.324 0 33.178 14.854 33.178 33.177z"/>
        <path fill="#000" d="M137 158.286v-2.14c2.906-1.454 4.945-4.28 4.945-7.487 0-1.028-.044-1.884-.217-2.996h-4.468v-2.696h4.034c-.218-1.285-.478-2.954-.478-4.622 0-5.049 3.514-8.345 8.329-8.345 2.255 0 3.817.514 4.728 1.07l-.867 2.825c-.782-.429-2.039-.856-3.861-.856-3.384 0-4.771 2.31-4.771 5.349 0 1.84.26 3.21.52 4.579h6.247v2.696h-5.9c.13 1.625.217 3.252-.174 4.793-.476 1.84-1.518 3.38-2.993 4.62v.087H155v3.123h-18z"/>
    </g>
</svg>
