<svg xmlns="http://www.w3.org/2000/svg" xmlns:xlink="http://www.w3.org/1999/xlink" width="1440" height="425" viewBox="0 0 1440 425">
    <defs>
        <path id="a" d="M0 0h1440v425H0z"/>
        <linearGradient id="c" x1="50%" x2="50%" y1="-8.587%" y2="32.778%">
            <stop offset="0%" stop-color="#43B198"/>
            <stop offset="100%" stop-color="#F8F8F8"/>
        </linearGradient>
        <filter id="d" width="159.3%" height="166.7%" x="-29.6%" y="-25%" filterUnits="objectBoundingBox">
            <feOffset dy="2" in="SourceAlpha" result="shadowOffsetOuter1"/>
            <feGaussianBlur in="shadowOffsetOuter1" result="shadowBlurOuter1" stdDeviation="2"/>
            <feColorMatrix in="shadowBlurOuter1" result="shadowMatrixOuter1" values="0 0 0 0 1 0 0 0 0 1 0 0 0 0 1 0 0 0 1 0"/>
            <feMerge>
                <feMergeNode in="shadowMatrixOuter1"/>
                <feMergeNode in="SourceGraphic"/>
            </feMerge>
        </filter>
        <filter id="e" width="159.3%" height="166.7%" x="-29.6%" y="-25%" filterUnits="objectBoundingBox">
            <feOffset dy="2" in="SourceAlpha" result="shadowOffsetOuter1"/>
            <feGaussianBlur in="shadowOffsetOuter1" result="shadowBlurOuter1" stdDeviation="2"/>
            <feColorMatrix in="shadowBlurOuter1" result="shadowMatrixOuter1" values="0 0 0 0 1 0 0 0 0 1 0 0 0 0 1 0 0 0 1 0"/>
            <feMerge>
                <feMergeNode in="shadowMatrixOuter1"/>
                <feMergeNode in="SourceGraphic"/>
            </feMerge>
        </filter>
        <filter id="f" width="159.3%" height="166.7%" x="-29.6%" y="-25%" filterUnits="objectBoundingBox">
            <feOffset dy="2" in="SourceAlpha" result="shadowOffsetOuter1"/>
            <feGaussianBlur in="shadowOffsetOuter1" result="shadowBlurOuter1" stdDeviation="2"/>
            <feColorMatrix in="shadowBlurOuter1" result="shadowMatrixOuter1" values="0 0 0 0 1 0 0 0 0 1 0 0 0 0 1 0 0 0 1 0"/>
            <feMerge>
                <feMergeNode in="shadowMatrixOuter1"/>
                <feMergeNode in="SourceGraphic"/>
            </feMerge>
        </filter>
    </defs>
    <g fill="none" fill-rule="evenodd">
        <mask id="b" fill="#fff">
            <use xlink:href="#a"/>
        </mask>
        <g stroke="url(#c)" stroke-dasharray="2,6" stroke-linecap="round" stroke-linejoin="round" stroke-width="2" mask="url(#b)">
            <path d="M718.5 610c311.212 0 563.5-120.883 563.5-270 0-149.117-252.288-270-563.5-270S155 190.883 155 340c0 149.117 252.288 270 563.5 270z"/>
        </g>
        <rect width="46" height="38" x="697" y="52" fill="#F8F8F8" mask="url(#b)" rx="19"/>
        <g mask="url(#b)">
            <g filter="url(#d)" transform="rotate(-30 475.23 -1278.28)">
                <path fill="#57C1B0" d="M26.654 13.33l-5.553 9.388c-.725 1.226-2.339 1.648-3.586.934L1.3 14.366a2.565 2.565 0 0 1-.946-3.528L5.908 1.45c.244-.413.588-.733.985-.95l3.573 13.304c.368 1.373 1.81 2.198 3.204 1.835L27 12.174c-.02.398-.13.791-.346 1.156"/>
                <path stroke="#000" stroke-width=".75" d="M26.654 13.33l-5.553 9.388c-.725 1.226-2.339 1.648-3.586.934L1.3 14.366a2.565 2.565 0 0 1-.946-3.528L5.908 1.45c.244-.413.588-.733.985-.95l3.573 13.304c.368 1.373 1.81 2.198 3.204 1.835L27 12.174c-.02.398-.13.791-.346 1.156z"/>
                <path fill="#57C1B0" d="M26.996 11.962l-13.168 3.453c-1.379.361-2.803-.46-3.167-1.829L7.132.328A2.612 2.612 0 0 1 9.7.346L25.72 9.6a2.56 2.56 0 0 1 1.277 2.362"/>
                <path stroke="#000" stroke-width=".75" d="M26.996 11.962l-13.168 3.453c-1.379.361-2.803-.46-3.167-1.829L7.132.328A2.612 2.612 0 0 1 9.7.346L25.72 9.6a2.56 2.56 0 0 1 1.277 2.362z"/>
            </g>
        </g>
        <g mask="url(#b)">
            <g filter="url(#e)" transform="rotate(-44 408.098 -63.22)">
                <path fill="#57C1B0" d="M26.654 13.33l-5.553 9.388c-.725 1.226-2.339 1.648-3.586.934L1.3 14.366a2.565 2.565 0 0 1-.946-3.528L5.908 1.45c.244-.413.588-.733.985-.95l3.573 13.304c.368 1.373 1.81 2.198 3.204 1.835L27 12.174c-.02.398-.13.791-.346 1.156"/>
                <path stroke="#000" stroke-width=".75" d="M26.654 13.33l-5.553 9.388c-.725 1.226-2.339 1.648-3.586.934L1.3 14.366a2.565 2.565 0 0 1-.946-3.528L5.908 1.45c.244-.413.588-.733.985-.95l3.573 13.304c.368 1.373 1.81 2.198 3.204 1.835L27 12.174c-.02.398-.13.791-.346 1.156z"/>
                <path fill="#57C1B0" d="M26.996 11.962l-13.168 3.453c-1.379.361-2.803-.46-3.167-1.829L7.132.328A2.612 2.612 0 0 1 9.7.346L25.72 9.6a2.56 2.56 0 0 1 1.277 2.362"/>
                <path stroke="#000" stroke-width=".75" d="M26.996 11.962l-13.168 3.453c-1.379.361-2.803-.46-3.167-1.829L7.132.328A2.612 2.612 0 0 1 9.7.346L25.72 9.6a2.56 2.56 0 0 1 1.277 2.362z"/>
            </g>
        </g>
        <g mask="url(#b)">
            <g filter="url(#f)" transform="rotate(-45 919.256 -1379.176)">
                <path fill="#57C1B0" d="M26.654 13.33l-5.553 9.388c-.725 1.226-2.339 1.648-3.586.934L1.3 14.366a2.565 2.565 0 0 1-.946-3.528L5.908 1.45c.244-.413.588-.733.985-.95l3.573 13.304c.368 1.373 1.81 2.198 3.204 1.835L27 12.174c-.02.398-.13.791-.346 1.156"/>
                <path stroke="#000" stroke-width=".75" d="M26.654 13.33l-5.553 9.388c-.725 1.226-2.339 1.648-3.586.934L1.3 14.366a2.565 2.565 0 0 1-.946-3.528L5.908 1.45c.244-.413.588-.733.985-.95l3.573 13.304c.368 1.373 1.81 2.198 3.204 1.835L27 12.174c-.02.398-.13.791-.346 1.156z"/>
                <path fill="#57C1B0" d="M26.996 11.962l-13.168 3.453c-1.379.361-2.803-.46-3.167-1.829L7.132.328A2.612 2.612 0 0 1 9.7.346L25.72 9.6a2.56 2.56 0 0 1 1.277 2.362"/>
                <path stroke="#000" stroke-width=".75" d="M26.996 11.962l-13.168 3.453c-1.379.361-2.803-.46-3.167-1.829L7.132.328A2.612 2.612 0 0 1 9.7.346L25.72 9.6a2.56 2.56 0 0 1 1.277 2.362z"/>
            </g>
        </g>
        <g>
            <path fill="#FFF" d="M270 231h20v20h-20z"/>
            <path fill="#FFF" d="M314.439 167.562v34.755c0 16.458-13.429 29.918-29.835 29.918H274.3c-16.406 0-29.834-13.46-29.834-29.918v-34.755c0-16.453 13.428-29.92 29.834-29.92h10.303c16.406 0 29.835 13.467 29.835 29.92"/>
            <path stroke="#101111" stroke-width="1.8" d="M314.439 167.562v34.755c0 16.458-13.429 29.918-29.835 29.918H274.3c-16.406 0-29.834-13.46-29.834-29.918v-34.755c0-16.453 13.428-29.92 29.834-29.92h10.303c16.406 0 29.835 13.467 29.835 29.92z"/>
            <path fill="#FFF" d="M269.776 245.13V243.224"/>
            <path stroke="#101111" stroke-width="1.8" d="M269.776 245.13V243.224"/>
            <path fill="#FFF" d="M269.776 243.74v-11.504"/>
            <path stroke="#101111" stroke-width="1.8" d="M269.776 243.74v-11.504"/>
            <path fill="#FFF" d="M289.732 231.863v13.267"/>
            <path stroke="#101111" stroke-width="1.8" d="M289.732 231.863v13.267"/>
            <path fill="#FFF" d="M330.066 289.187v10.436h-102.82v-10.436c0-23.912 18.947-43.604 42.53-44.72.024-.004.054-.004.08-.004.61 4.977 4.872 8.859 9.994 8.859 5.061 0 9.284-3.798 9.974-8.69 22.51 2.235 40.242 21.42 40.242 44.555"/>
            <path stroke="#101111" stroke-width="1.8" d="M330.066 289.187v10.436h-102.82v-10.436c0-23.912 18.947-43.604 42.53-44.72.024-.004.054-.004.08-.004.61 4.977 4.872 8.859 9.994 8.859 5.061 0 9.284-3.798 9.974-8.69 22.51 2.235 40.242 21.42 40.242 44.555z"/>
            <path fill="#FFF" d="M338.547 299.623h-8.481"/>
            <path stroke="#101111" stroke-width="1.8" d="M338.48 300H330"/>
            <path fill="#FFF" d="M227.246 299.623h-7.34"/>
            <path stroke="#101111" stroke-width="1.8" d="M227.246 299.623h-7.34"/>
            <path fill="#FFF" d="M245.957 288.423v11.222"/>
            <path stroke="#101111" stroke-width="1.8" d="M245.957 288.423v11.222"/>
            <path fill="#FFF" d="M311.653 288.423v11.222"/>
            <path stroke="#101111" stroke-width="1.8" d="M311.653 288.423v11.222"/>
            <path fill="#FFF" d="M290.693 211.867c-.224 4.658-5.172 8.38-11.24 8.38-6.07 0-11.017-3.722-11.241-8.38"/>
            <path stroke="#101111" stroke-width="1.8" d="M290.693 211.867c-.224 4.658-5.172 8.38-11.24 8.38-6.07 0-11.017-3.722-11.241-8.38"/>
            <path fill="#FFF" d="M276.434 198.346h6.037"/>
            <path stroke="#101111" stroke-width="1.8" d="M276.434 198.346h6.037"/>
            <path fill="#000" d="M265.405 183.278c0 2.31-1.247 4.183-2.784 4.183-1.538 0-2.784-1.873-2.784-4.183 0-2.31 1.246-4.183 2.784-4.183 1.537 0 2.784 1.873 2.784 4.183M298.534 183.278c0 2.31-1.247 4.183-2.785 4.183-1.537 0-2.784-1.873-2.784-4.183 0-2.31 1.247-4.183 2.784-4.183 1.538 0 2.785 1.873 2.785 4.183"/>
            <path fill="#FFF" d="M244.466 177.878v17.98h-.823c-3.276 0-5.956-2.687-5.956-5.972v-6.036c0-3.285 2.68-5.972 5.956-5.972h.823z"/>
            <path stroke="#101111" stroke-width="1.8" d="M244.466 177.878v17.98h-.823c-3.276 0-5.956-2.687-5.956-5.972v-6.036c0-3.285 2.68-5.972 5.956-5.972h.823z"/>
            <path fill="#FFF" d="M314.584 177.878v17.98h.824c3.275 0 5.955-2.687 5.955-5.972v-6.036c0-3.285-2.68-5.972-5.955-5.972h-.824z"/>
            <path stroke="#101111" stroke-width="1.8" d="M314.584 177.878v17.98h.824c3.275 0 5.955-2.687 5.955-5.972v-6.036c0-3.285-2.68-5.972-5.955-5.972h-.824z"/>
            <path fill="#FFF" d="M255.865 175.365c1.424-2.948 4.368-5.104 7.601-5.57"/>
            <path stroke="#101111" stroke-width="1.8" d="M255.865 175.365c1.424-2.948 4.368-5.104 7.601-5.57"/>
            <path fill="#FFF" d="M302.334 175.365c-1.424-2.948-4.368-5.104-7.6-5.57"/>
            <path stroke="#101111" stroke-width="1.8" d="M302.334 175.365c-1.424-2.948-4.368-5.104-7.6-5.57M244.83 161.307c11.443 3.996 21.102-3.53 30.394-9.125 5.112-3.076 9.161-5.794 14.909-4.152 3.768 1.076 7.278 2.906 11.067 3.918 2.145.572 4.366.855 6.586.83 1.413-.014 2.845-.084 4.232-.367 1.66-.339 3.618-1.313 2.214-3.07"/>
            <g>
                <path fill="#FFF" d="M1053 220h20v20h-20zM1097.972 154.92v34.755c0 16.457-13.428 29.918-29.835 29.918h-10.302c-16.407 0-29.835-13.46-29.835-29.918v-34.756c0-16.452 13.428-29.919 29.835-29.919h10.302c16.407 0 29.835 13.467 29.835 29.92"/>
                <path stroke="#101111" stroke-width="1.8" d="M1097.972 154.92v34.755c0 16.457-13.428 29.918-29.835 29.918h-10.302c-16.407 0-29.835-13.46-29.835-29.918v-34.756c0-16.452 13.428-29.919 29.835-29.919h10.302c16.407 0 29.835 13.467 29.835 29.92z"/>
                <path fill="#FFF" d="M1052.764 231.71V229.806"/>
                <path stroke="#101111" stroke-width="1.8" d="M1052.764 231.71V229.806"/>
                <path fill="#FFF" d="M1052.764 230.486v-11.504"/>
                <path stroke="#101111" stroke-width="1.8" d="M1052.764 230.486v-11.504"/>
                <path fill="#FFF" d="M1072.55 218.381v13.267"/>
                <path stroke="#101111" stroke-width="1.8" d="M1072.55 218.381v13.267"/>
                <path fill="#FFF" d="M1112.82 275.724v10.436H1010v-10.436c0-23.912 18.947-43.604 42.529-44.72.025-.004.054-.004.08-.004.61 4.977 4.873 8.859 9.994 8.859 5.062 0 9.285-3.798 9.975-8.69 22.51 2.235 40.241 21.42 40.241 44.555"/>
                <path stroke="#101111" stroke-width="1.8" d="M1112.82 275.724v10.436H1010v-10.436c0-23.912 18.947-43.604 42.529-44.72.025-.004.054-.004.08-.004.61 4.977 4.873 8.859 9.994 8.859 5.062 0 9.285-3.798 9.975-8.69 22.51 2.235 40.241 21.42 40.241 44.555z"/>
                <path fill="#FFF" d="M1121.202 286.322h-8.482"/>
                <path stroke="#101111" stroke-width="1.8" d="M1121.202 286.322h-8.482"/>
                <path fill="#FFF" d="M1028.781 275.898v11.222"/>
                <path stroke="#101111" stroke-width="1.8" d="M1028.781 275.898v11.222"/>
                <path fill="#FFF" d="M1094.733 275.898v11.222"/>
                <path stroke="#101111" stroke-width="1.8" d="M1094.733 275.898v11.222"/>
                <path fill="#FFF" d="M1059.36 185.313h6.036"/>
                <path stroke="#101111" stroke-width="1.8" d="M1059.36 185.313h6.036"/>
                <path fill="#000" d="M1048.568 170.183c0 2.31-1.247 4.183-2.784 4.183-1.538 0-2.784-1.873-2.784-4.183 0-2.31 1.246-4.183 2.784-4.183 1.537 0 2.784 1.873 2.784 4.183M1081.568 170.183c0 2.31-1.246 4.183-2.784 4.183-1.538 0-2.784-1.873-2.784-4.183 0-2.31 1.246-4.183 2.784-4.183 1.538 0 2.784 1.873 2.784 4.183"/>
                <path fill="#FFF" d="M1027.78 165v17.98h-.825c-3.275 0-5.955-2.687-5.955-5.971v-6.037c0-3.284 2.68-5.972 5.955-5.972h.824z"/>
                <path stroke="#101111" stroke-width="1.8" d="M1027.78 165v17.98h-.825c-3.275 0-5.955-2.687-5.955-5.971v-6.037c0-3.284 2.68-5.972 5.955-5.972h.824z"/>
                <path fill="#FFF" d="M1098 165v17.98h.824c3.275 0 5.955-2.687 5.955-5.971v-6.037c0-3.284-2.68-5.972-5.955-5.972H1098z"/>
                <path stroke="#101111" stroke-width="1.8" d="M1098 165v17.98h.824c3.275 0 5.955-2.687 5.955-5.971v-6.037c0-3.284-2.68-5.972-5.955-5.972H1098z"/>
                <path fill="#FFF" d="M1039.374 162.023c1.424-2.948 4.368-5.105 7.601-5.57"/>
                <path stroke="#101111" stroke-width="1.8" d="M1039.374 162.023c1.424-2.948 4.368-5.105 7.601-5.57"/>
                <path fill="#FFF" d="M1084.947 162.023c-1.424-2.948-4.368-5.105-7.601-5.57"/>
                <path stroke="#101111" stroke-width="1.8" d="M1084.947 162.023c-1.424-2.948-4.368-5.105-7.601-5.57"/>
                <path fill="#FFF" d="M1100.133 195.786c0 15.175-10.613 27.868-24.798 31.012a17.241 17.241 0 0 1-5.732.974h-13.892c-1.367 0-2.698-.157-3.975-.463-15.636-1.948-27.735-15.313-27.736-31.522 0-4.753.87-10.85 3.72-14.787.172.684.095 1.367.093 2.093v.019c0 5.831 3.76 10.78 8.976 12.547 1.33.458 2.752.704 4.239.704 1.864 0 3.639-.385 5.246-1.089a13.05 13.05 0 0 0 2.146-1.178 17.333 17.333 0 0 1 7.291-1.6h13.892c2.908 0 5.654.717 8.07 1.979.012.006.018.012.03.018.444.3.9.571 1.379.811a13.056 13.056 0 0 0 5.978 1.438c.773 0 1.535-.067 2.272-.199 5.78-.998 10.265-5.76 10.882-11.682a31.824 31.824 0 0 1 1.919 10.925"/>
                <path stroke="#101111" stroke-width="1.8" d="M1100.133 195.786c0 15.175-10.613 27.868-24.798 31.012a17.241 17.241 0 0 1-5.732.974h-13.892c-1.367 0-2.698-.157-3.975-.463-15.636-1.948-27.735-15.313-27.736-31.522 0-4.753.87-10.85 3.72-14.787.172.684.095 1.367.093 2.093v.019c0 5.831 3.76 10.78 8.976 12.547 1.33.458 2.752.704 4.239.704 1.864 0 3.639-.385 5.246-1.089a13.05 13.05 0 0 0 2.146-1.178 17.333 17.333 0 0 1 7.291-1.6h13.892c2.908 0 5.654.717 8.07 1.979.012.006.018.012.03.018.444.3.9.571 1.379.811a13.056 13.056 0 0 0 5.978 1.438c.773 0 1.535-.067 2.272-.199 5.78-.998 10.265-5.76 10.882-11.682a31.824 31.824 0 0 1 1.919 10.925z"/>
                <path fill="#FFF" d="M1048.134 194c-.671.458-1.385.848-2.134 1.172a16.07 16.07 0 0 1 2.134-1.172"/>
                <path stroke="#101111" stroke-width="1.8" d="M1048.134 194c-.671.458-1.385.848-2.134 1.172a16.07 16.07 0 0 1 2.134-1.172z"/>
                <path fill="#FFF" d="M1078.379 194.812c-.48-.24-.935-.511-1.379-.812.474.247.935.518 1.379.812"/>
                <path stroke="#101111" stroke-width="1.8" d="M1078.379 194.812c-.48-.24-.935-.511-1.379-.812.474.247.935.518 1.379.812z"/>
                <path fill="#FFF" d="M1073.446 198.54c-.224 4.658-5.171 8.38-11.24 8.38-6.07 0-11.017-3.722-11.24-8.38"/>
                <path stroke="#101111" stroke-width="1.8" d="M1073.446 198.54c-.224 4.658-5.171 8.38-11.24 8.38-6.07 0-11.017-3.722-11.24-8.38"/>
                <path fill="#FFF" d="M1099.328 132.093v.817a32.89 32.89 0 0 1-.887 7.612c-.024-.006-.048-.006-.072-.006h-72.482a32.8 32.8 0 0 1-.887-7.606v-.817c0-16.24 11.83-29.852 27.274-32.594A33.354 33.354 0 0 1 1058 99h8.328c1.469 0 2.914.096 4.335.289 16.116 2.14 28.665 16.077 28.665 32.804"/>
                <path stroke="#101111" stroke-width="1.8" d="M1099.328 132.093v.817a32.89 32.89 0 0 1-.887 7.612c-.024-.006-.048-.006-.072-.006h-72.482a32.8 32.8 0 0 1-.887-7.606v-.817c0-16.24 11.83-29.852 27.274-32.594A33.354 33.354 0 0 1 1058 99h8.328c1.469 0 2.914.096 4.335.289 16.116 2.14 28.665 16.077 28.665 32.804z"/>
                <path fill="#FFF" d="M1093.633 148c-.203.39-7.694 4.335-11.754 4.335h-40.723c-4.316 0-12.022-4.076-12.156-4.335h64.633z"/>
                <path stroke="#101111" stroke-width="1.8" d="M1093.633 148c-.203.39-7.694 4.335-11.754 4.335h-40.723c-4.316 0-12.022-4.076-12.156-4.335h64.633z"/>
                <path fill="#FFF" d="M1101.333 146.866c0 .547-.521.992-1.163.992h-76.007c-.641 0-1.163-.445-1.163-.992l.684-3.355.515-2.513c0-.547.522-.998 1.163-.998h73.01c.023 0 .047 0 .071.006.612.03 1.091.469 1.091.992l.978 3.187.821 2.681z"/>
                <path stroke="#101111" stroke-width="1.8" d="M1101.333 146.866c0 .547-.521.992-1.163.992h-76.007c-.641 0-1.163-.445-1.163-.992l.684-3.355.515-2.513c0-.547.522-.998 1.163-.998h73.01c.023 0 .047 0 .071.006.612.03 1.091.469 1.091.992l.978 3.187.821 2.681z"/>
                <path fill="#FFF" d="M1052 139.889h18.389V95H1052z"/>
                <path stroke="#101111" stroke-width="1.8" d="M1052 139.889h18.389V95H1052z"/>
            </g>
            <g>
                <path fill="#FFF" d="M1162.272 300.698h-5.997c-20.44 0-37.162-16.748-37.162-37.216V188.53c0-20.469 16.723-37.217 37.162-37.217h5.997c20.439 0 37.162 16.748 37.162 37.217v74.952c0 20.468-16.723 37.216-37.162 37.216"/>
                <path stroke="#232427" stroke-width="1.872" d="M1162.272 300.698h-5.997c-20.44 0-37.162-16.748-37.162-37.216V188.53c0-20.469 16.723-37.217 37.162-37.217h5.997c20.439 0 37.162 16.748 37.162 37.217v74.952c0 20.468-16.723 37.216-37.162 37.216z"/>
                <path fill="#FFF" d="M1163.388 184.208v-.032c0-1.8.74-3.443 1.923-4.628a6.54 6.54 0 0 1 4.622-1.926c1.803 0 3.438.74 4.628 1.926a6.549 6.549 0 0 1 1.922 4.628v.032m18.093-.941c-3.689-13.108-15.77-22.792-29.998-22.792h-10.76c-14.228 0-26.308 9.684-29.997 22.792a30.9 30.9 0 0 0-1.165 8.417v36.257c0 17.166 14.022 31.208 31.163 31.208h10.76c17.134 0 31.162-14.042 31.162-31.208v-36.257a30.9 30.9 0 0 0-1.165-8.417"/>
                <path stroke="#101111" stroke-width="1.872" d="M1194.576 183.267c-3.689-13.108-15.77-22.792-29.998-22.792h-10.76c-14.228 0-26.308 9.684-29.997 22.792a30.9 30.9 0 0 0-1.165 8.417v36.257c0 17.166 14.022 31.208 31.163 31.208h10.76c17.134 0 31.162-14.042 31.162-31.208v-36.257a30.9 30.9 0 0 0-1.165-8.417z"/>
                <path fill="#FFF" d="M1149.09 272.6v-1.988"/>
                <path stroke="#101111" stroke-width="1.872" d="M1149.09 272.6v-1.988"/>
                <path fill="#FFF" d="M1149.09 271.149v-12"/>
                <path stroke="#101111" stroke-width="1.872" d="M1149.09 271.149v-12"/>
                <path fill="#FFF" d="M1169.935 258.76v13.84"/>
                <path stroke="#101111" stroke-width="1.872" d="M1169.935 258.76v13.84"/>
                <path fill="#FFF" d="M1212.064 318.557v10.885h-107.397v-10.885c0-24.943 19.79-45.484 44.422-46.648.026-.005.057-.005.084-.005.637 5.192 5.09 9.24 10.44 9.24 5.286 0 9.697-3.96 10.418-9.063 23.512 2.33 42.033 22.343 42.033 46.476"/>
                <path stroke="#101111" stroke-width="1.872" d="M1212.064 318.557v10.885h-107.397v-10.885c0-24.943 19.79-45.484 44.422-46.648.026-.005.057-.005.084-.005.637 5.192 5.09 9.24 10.44 9.24 5.286 0 9.697-3.96 10.418-9.063 23.512 2.33 42.033 22.343 42.033 46.476z"/>
                <path fill="#FFF" d="M1220.923 329.443h-8.859"/>
                <path stroke="#101111" stroke-width="1.872" d="M1220.923 329.443h-8.859"/>
                <path fill="#FFF" d="M1104.667 329.443H1097"/>
                <path stroke="#101111" stroke-width="1.872" d="M1104.667 329.443H1097"/>
                <path fill="#FFF" d="M1124.21 317.76v11.706"/>
                <path stroke="#101111" stroke-width="1.872" d="M1124.21 317.76v11.706"/>
                <path fill="#FFF" d="M1192.832 317.76v11.706"/>
                <path stroke="#101111" stroke-width="1.872" d="M1192.832 317.76v11.706"/>
                <path fill="#FFF" d="M1170.938 237.902c-.233 4.859-5.401 8.742-11.741 8.742s-11.507-3.883-11.74-8.742"/>
                <path stroke="#101111" stroke-width="1.872" d="M1170.938 237.902c-.233 4.859-5.401 8.742-11.741 8.742s-11.507-3.883-11.74-8.742"/>
                <path fill="#FFF" d="M1156.044 223.798h6.306"/>
                <path stroke="#101111" stroke-width="1.872" d="M1156.044 223.798h6.306"/>
                <path fill="#000" d="M1144.524 208.08c0 2.41-1.302 4.364-2.907 4.364-1.607 0-2.908-1.954-2.908-4.364s1.301-4.364 2.908-4.364c1.605 0 2.907 1.954 2.907 4.364M1179.128 208.08c0 2.41-1.302 4.364-2.908 4.364-1.606 0-2.908-1.954-2.908-4.364s1.302-4.364 2.908-4.364c1.606 0 2.908 1.954 2.908 4.364"/>
                <path fill="#FFF" d="M1122.653 202.447v18.756h-.86c-3.42 0-6.22-2.804-6.22-6.23v-6.296c0-3.426 2.8-6.23 6.22-6.23h.86z"/>
                <path stroke="#101111" stroke-width="1.872" d="M1122.653 202.447v18.756h-.86c-3.42 0-6.22-2.804-6.22-6.23v-6.296c0-3.426 2.8-6.23 6.22-6.23h.86z"/>
                <path fill="#FFF" d="M1195.894 202.447v18.756h.86c3.421 0 6.22-2.804 6.22-6.23v-6.296c0-3.426-2.799-6.23-6.22-6.23h-.86z"/>
                <path stroke="#101111" stroke-width="1.872" d="M1195.894 202.447v18.756h.86c3.421 0 6.22-2.804 6.22-6.23v-6.296c0-3.426-2.799-6.23-6.22-6.23h-.86z"/>
                <g>
                    <path fill="#FFF" d="M1134.56 199.826c1.487-3.075 4.562-5.325 7.94-5.81"/>
                    <path stroke="#101111" stroke-width="1.872" d="M1134.56 199.826c1.487-3.075 4.562-5.325 7.94-5.81"/>
                </g>
                <g>
                    <path fill="#FFF" d="M1183.098 199.826c-1.488-3.075-4.563-5.325-7.94-5.81"/>
                    <path stroke="#101111" stroke-width="1.872" d="M1183.098 199.826c-1.488-3.075-4.563-5.325-7.94-5.81"/>
                </g>
                <g>
                    <path fill="#FFF" d="M1195.296 183.267h-18.813"/>
                    <path stroke="#101111" stroke-width="1.872" d="M1195.296 183.267h-18.813"/>
                </g>
                <g>
                    <path fill="#FFF" d="M1163.388 183.267h-39.567"/>
                    <path stroke="#101111" stroke-width="1.872" d="M1163.388 183.267h-39.567"/>
                </g>
            </g>
        </g>
    </g>
</svg>
