<svg xmlns="http://www.w3.org/2000/svg" width="39" height="39" viewBox="0 0 39 39">
    <g fill="none" fill-rule="evenodd">
        <path fill="#DDFDF6" d="M18.551 14.711l5.78 4.296a1 1 0 0 1 0 1.605l-5.78 4.296a1 1 0 0 1-1.596-.803v-8.591a1 1 0 0 1 1.596-.803z"/>
        <path fill="#DDFDF6" fill-rule="nonzero" d="M19.5 6C12.044 6 6 12.044 6 19.5S12.044 33 19.5 33 33 26.956 33 19.5 26.956 6 19.5 6zm0-1C27.508 5 34 11.492 34 19.5S27.508 34 19.5 34 5 27.508 5 19.5 11.492 5 19.5 5z"/>
        <path fill="#586562" fill-rule="nonzero" d="M19.5 1.5v-1c.689 0 1.373.037 2.051.11l-.106.994A18.208 18.208 0 0 0 19.5 1.5zm3.87.417l.214-.977c.671.147 1.332.33 1.98.549l-.319.947a17.86 17.86 0 0 0-1.875-.519zm3.73 1.262l.423-.907c.622.29 1.227.613 1.812.969l-.518.855a17.953 17.953 0 0 0-1.716-.917zm3.314 2.006l.607-.795a19.1 19.1 0 0 1 1.563 1.333l-.688.725a18.1 18.1 0 0 0-1.482-1.263zm2.864 2.731l.765-.644c.441.525.854 1.072 1.236 1.64l-.83.559a18.071 18.071 0 0 0-1.171-1.555zm2.137 3.167l.884-.468c.32.605.608 1.227.862 1.864l-.93.37a17.908 17.908 0 0 0-.816-1.766zm1.447 3.65l.965-.264c.18.66.325 1.33.434 2.008l-.988.158a17.892 17.892 0 0 0-.41-1.902zm.617 3.897l1-.048c.013.3.02.6.021.9v.018c0 .386-.011.77-.034 1.153l-.999-.06c.022-.363.033-.727.033-1.093v-.017c0-.285-.007-.57-.02-.853zm-.233 3.898l.986.167a18.884 18.884 0 0 1-.452 2.004l-.962-.273c.177-.623.32-1.256.428-1.898zm-1.075 3.773l.926.378c-.26.635-.553 1.255-.88 1.857l-.878-.476c.308-.57.586-1.158.832-1.759zm-1.848 3.414l.822.568c-.389.564-.808 1.107-1.256 1.625l-.757-.653c.424-.491.822-1.006 1.19-1.54zM31.739 32.7l.68.733c-.502.466-1.03.905-1.579 1.314l-.597-.802c.52-.388 1.02-.803 1.496-1.245zm-3.07 2.295l.51.86c-.59.349-1.198.666-1.822.95l-.414-.91c.591-.269 1.167-.57 1.725-.9zm-3.575 1.62l.31.95c-.65.213-1.312.39-1.984.531l-.206-.979a17.862 17.862 0 0 0 1.88-.502zm-3.859.803l.096.996a19.227 19.227 0 0 1-2.083.085l.013-1a18.224 18.224 0 0 0 1.975-.081zm-3.916-.048l-.12.993a18.935 18.935 0 0 1-2.024-.357l.227-.973c.63.146 1.27.26 1.917.337zm-3.81-.89l-.332.943a18.883 18.883 0 0 1-1.898-.788l.433-.901c.585.28 1.185.53 1.797.746zm-3.503-1.684l-.529.85a19.048 19.048 0 0 1-1.682-1.178l.616-.787c.511.4 1.044.773 1.595 1.115zm-3.098-2.432l-.7.714a19.11 19.11 0 0 1-1.387-1.513l.772-.635c.412.5.851.98 1.315 1.434zm-2.446-2.966l-.834.55a18.984 18.984 0 0 1-1.037-1.773l.89-.457c.296.577.624 1.138.981 1.68zm-1.788-3.488l-.934.356a18.855 18.855 0 0 1-.626-1.957l.967-.252c.164.629.362 1.247.593 1.853zm-.988-3.811l-.99.143a19.101 19.101 0 0 1-.184-2.046l1-.036c.023.652.082 1.299.174 1.939zm-.138-3.929l-.997-.073c.05-.686.137-1.366.26-2.038l.984.18c-.117.637-.2 1.28-.247 1.931zm.705-3.839l-.958-.287c.197-.657.43-1.302.696-1.933l.921.39a17.862 17.862 0 0 0-.659 1.83zm1.515-3.583l-.874-.487c.334-.598.7-1.178 1.096-1.737l.816.579c-.376.529-.722 1.078-1.038 1.645zm2.278-3.205l-.748-.664c.456-.512.938-1 1.446-1.46l.671.742c-.48.436-.938.897-1.37 1.382zm2.851-2.59l-.59-.807a19.023 19.023 0 0 1 1.722-1.12l.5.867c-.563.324-1.108.678-1.632 1.06zm3.396-1.951l-.4-.917c.627-.274 1.269-.514 1.924-.72l.298.955c-.62.194-1.228.422-1.822.682zm3.755-1.17l-.19-.982c.67-.13 1.349-.224 2.034-.282l.084.997c-.65.054-1.293.143-1.928.267z"/>
    </g>
</svg>
