<svg xmlns="http://www.w3.org/2000/svg" width="64" height="64" viewBox="0 0 64 64">
    <g fill="#FFF" fill-rule="evenodd">
        <circle cx="27" cy="26" r="15" fill-opacity=".3"/>
        <path fill-rule="nonzero" d="M38.724 38.31l14.054 14.054a1 1 0 0 1-1.414 1.414L37.222 39.636l-.029-.03A16.925 16.925 0 0 1 27 43c-9.389 0-17-7.611-17-17S17.611 9 27 9s17 7.611 17 17c0 4.843-2.025 9.214-5.276 12.31zM27 41c8.284 0 15-6.716 15-15 0-8.284-6.716-15-15-15-8.284 0-15 6.716-15 15 0 8.284 6.716 15 15 15z"/>
    </g>
</svg>
