<svg xmlns="http://www.w3.org/2000/svg" width="28" height="28" viewBox="0 0 28 28">
    <g fill="none" fill-rule="nonzero">
        <path fill="#FFF" d="M19.5 6H22a2 2 0 0 1 2 2v14a2 2 0 0 1-2 2H6a2 2 0 0 1-2-2V8a2 2 0 0 1 2-2h3V4.75a.75.75 0 0 1 1.5 0V6H18V4.75a.75.75 0 1 1 1.5 0V6z"/>
        <path fill="#000" d="M6 7a1 1 0 0 0-1 1v14a1 1 0 0 0 1 1h16a1 1 0 0 0 1-1V8a1 1 0 0 0-1-1H6zm13.5-1H22a2 2 0 0 1 2 2v14a2 2 0 0 1-2 2H6a2 2 0 0 1-2-2V8a2 2 0 0 1 2-2h3V4.75a.75.75 0 0 1 1.5 0V6H18V4.75a.75.75 0 1 1 1.5 0V6zM5 11v1h18v-1H5zm13.602 9.855l2.012-2.011a.494.494 0 1 0-.699-.7l-1.662 1.663-.41-.41a.494.494 0 0 0-.698.7l.758.758a.494.494 0 0 0 .7 0zM9 6v1.25a.75.75 0 0 0 1.5 0V6H9zm10.5 0H18v1.25a.75.75 0 1 0 1.5 0V6zM9 6h1.5v1H9V6zm9 0h1.5v1H18V6z"/>
    </g>
</svg>
