<svg xmlns="http://www.w3.org/2000/svg" width="28" height="28" viewBox="0 0 28 28">
    <g fill="none" fill-rule="nonzero">
        <path fill="#FFF" d="M17.772 15.76a8.329 8.329 0 0 1 4.842 7.545c0 .076-.005.15-.01.223l-.022.5H6.03l-.022-.505C6.005 23.45 6 23.379 6 23.305a8.34 8.34 0 0 1 4.73-7.49l.066-.032c.246-.114.5-.218.756-.308l.083-.03a7.806 7.806 0 0 1 1.144-.302c.08-.015.161-.03.242-.043l.035-.005c.119-.019.238-.036.358-.048l.13-.012.052-.004.111-.01a8.509 8.509 0 0 1 1.169-.003l.314.026c.093.011.182.024.271.037l.03.004h.004l.03.006c.108.015.215.034.32.054l.043.009c.061.01.123.023.184.035a8.547 8.547 0 0 1 1.65.549l.05.023zm-5.362-2.154A4.99 4.99 0 0 1 9.357 9c0-.085.005-.168.011-.25l.004-.065A5.003 5.003 0 0 1 14.357 4c2.757 0 5 2.243 5 5l-.003.041a4.962 4.962 0 0 1-1.816 3.809l-.2.156a2.827 2.827 0 0 1-.178.134 4.89 4.89 0 0 1-.354.216l-.068.041c-.105.057-.21.105-.317.153l-.035.017a1.961 1.961 0 0 1-.32.128l-.108.038c-.04.015-.08.03-.12.043-.065.02-.132.036-.198.052l-.134.035a2.443 2.443 0 0 1-.145.036 3.348 3.348 0 0 1-.21.033l-.122.018c-.056.01-.11.019-.167.024a4.973 4.973 0 0 1-.505.026h-.04a4.965 4.965 0 0 1-1.451-.227c-.05-.016-.1-.034-.149-.053l-.127-.046c-.061-.022-.122-.043-.18-.068z"/>
        <path fill="#000" d="M17.772 15.734l-.05-.023a7.931 7.931 0 0 0-1.833-.584l-.043-.009a6.92 6.92 0 0 0-.32-.055l-.03-.004-.004-.001-.03-.004a7.64 7.64 0 0 0-.272-.037l-.314-.026a8.509 8.509 0 0 0-1.169.004l-.111.009-.052.004-.13.012c-.12.012-.24.029-.358.048l-.035.005a11.047 11.047 0 0 0-.506.096 8.365 8.365 0 0 0-.88.248l-.083.03c-.256.09-.51.195-.756.309l-.065.03-.002.003A8.34 8.34 0 0 0 6 23.279c0 .072.005.144.01.216l.02.505h16.552l.022-.499c.005-.074.01-.147.01-.223 0-3.232-1.9-6.19-4.842-7.544zm-10.96 7.455a7.52 7.52 0 0 1 4.298-6.684l.083-.033.01-.01c.2-.091.409-.175.62-.25l.067-.023a7.278 7.278 0 0 1 1.036-.274c.064-.012.127-.024.192-.034l.032-.006c.116-.018.232-.035.348-.048l.265-.023c.348-.025.68-.029 1.082 0l.258.022c.064.007.128.016.205.027l.093.013c.097.014.194.03.292.05l.045.008c.055.01.11.02.16.031a7.318 7.318 0 0 1 .778.216 7.156 7.156 0 0 1 .728.287l.02.009a7.516 7.516 0 0 1 4.377 6.72H6.811v.002zm5.49-9.24c.06.025.123.047.186.07l.132.048c.05.02.102.038.154.054.483.153.99.23 1.504.235h.04c.177 0 .354-.009.523-.026.059-.006.116-.015.173-.025l.127-.019c.071-.01.143-.02.217-.034.051-.01.1-.024.15-.038l.14-.035a3.31 3.31 0 0 0 .204-.054l.125-.044.111-.04c.08-.028.16-.057.24-.09l.092-.043.036-.018c.11-.049.22-.1.328-.158l.07-.042c.123-.069.244-.14.367-.224.064-.043.124-.091.184-.14l.208-.16a5.139 5.139 0 0 0 1.881-3.945l.003-.043A5.184 5.184 0 0 0 14.318 4a5.181 5.181 0 0 0-5.162 4.852l-.005.067a3.398 3.398 0 0 0-.011.259 5.168 5.168 0 0 0 3.161 4.77zM9.96 8.975l.005-.073a4.369 4.369 0 0 1 4.353-4.09c2.408 0 4.367 1.958 4.369 4.329l-.003.043a4.367 4.367 0 0 1-1.593 3.362l-.193.147c-.043.035-.086.07-.14.107-.097.066-.2.126-.305.185l-.058.035c-.088.048-.18.09-.276.132l-.107.052c-.062.025-.127.048-.19.07l-.135.048c-.026.01-.052.02-.078.028-.05.016-.1.028-.151.04l-.162.041c-.035.01-.07.02-.1.026-.054.01-.11.018-.164.026l-.154.023a1.497 1.497 0 0 1-.117.017 4.257 4.257 0 0 1-.409.023h-.038c-.445 0-.881-.067-1.298-.198-.036-.011-.072-.025-.107-.039l-.152-.055c-.048-.017-.095-.033-.14-.052A4.361 4.361 0 0 1 9.95 9.178c0-.068.006-.136.01-.203z"/>
    </g>
</svg>
