<svg xmlns="http://www.w3.org/2000/svg" width="28" height="28" viewBox="0 0 28 28">
    <g fill="none" fill-rule="evenodd">
        <path fill="#FFF" d="M4.5 7h19A1.5 1.5 0 0 1 25 8.5v11a1.5 1.5 0 0 1-1.5 1.5h-19A1.5 1.5 0 0 1 3 19.5v-11A1.5 1.5 0 0 1 4.5 7z"/>
        <path fill="#000" d="M4.5 7h19A1.5 1.5 0 0 1 25 8.5v11a1.5 1.5 0 0 1-1.5 1.5h-19A1.5 1.5 0 0 1 3 19.5v-11A1.5 1.5 0 0 1 4.5 7zM24 10V8.5a.5.5 0 0 0-.5-.5h-19a.5.5 0 0 0-.5.5V10h20zm0 1.103H4V19.5a.5.5 0 0 0 .5.5h19a.5.5 0 0 0 .5-.5v-8.397zM6.4 15h1.649c.22 0 .4.18.4.4v1.824a.4.4 0 0 1-.4.4H6.4a.4.4 0 0 1-.4-.4V15.4c0-.22.18-.4.4-.4zm.35 1.874h.949V15.75H6.75v1.124z"/>
    </g>
</svg>
