<svg xmlns="http://www.w3.org/2000/svg" width="28" height="28" viewBox="0 0 28 28">
    <g fill="none" fill-rule="nonzero">
        <path fill="#FFF" d="M6 23a1 1 0 0 0 1 1h14a1 1 0 0 0 1-1V8.895a.4.4 0 0 0-.126-.291l-4.78-4.495A.4.4 0 0 0 16.82 4H7a1 1 0 0 0-1 1v18z"/>
        <path fill="#000" d="M6 23V5a1 1 0 0 1 1-1h9.82a.4.4 0 0 1 .275.109l4.779 4.495a.4.4 0 0 1 .126.291V23a1 1 0 0 1-1 1H7a1 1 0 0 1-1-1zm1.451.147h13.05a.6.6 0 0 0 .6-.6V9.318h-4.303a.435.435 0 0 1-.447-.424v-4.04h-8.9a.6.6 0 0 0-.6.6v17.093a.6.6 0 0 0 .6.6zM17.25 5.445V8.51h3.228L17.25 5.445z"/>
    </g>
</svg>
