<svg xmlns="http://www.w3.org/2000/svg" width="28" height="28" viewBox="0 0 28 28">
    <g fill="none" fill-rule="nonzero">
        <path fill="#FFF" d="M13.504 25C7.691 25 3 20.064 3 14S7.691 3 13.504 3s10.504 4.936 10.504 11-4.69 11-10.504 11z"/>
        <path fill="#0B0A0A" d="M13.504 24c5.25 0 9.504-4.477 9.504-10S18.753 4 13.504 4 4 8.477 4 14s4.255 10 9.504 10zm0 1C7.691 25 3 20.064 3 14S7.691 3 13.504 3s10.504 4.936 10.504 11-4.69 11-10.504 11zm-.429-9.793a1.114 1.114 0 0 0 .913.49 1.1 1.1 0 0 0 .798-.349c.234-.245.353-.585.328-.932a1.202 1.202 0 0 0-.463-.869l-4.1-3.12a.306.306 0 0 0-.41.034.346.346 0 0 0-.033.431l2.967 4.315z"/>
    </g>
</svg>
