<svg xmlns="http://www.w3.org/2000/svg" width="28" height="28" viewBox="0 0 28 28">
    <g fill="none" fill-rule="nonzero">
        <path fill="#FFF" d="M20.823 23.671c.496 0 .948-.49.948-1.06v-8.63h1.546c.13 0 .137-.005.143-.02.008-.02 0-.055-.108-.166l-9.02-9.146a.49.49 0 0 0-.706 0l-9.02 9.146c-.108.11-.115.146-.107.165.006.016.013.021.143.021h1.516v8.63c0 .569.469 1.06.978 1.06h4.071v-5.51h5.424v5.51h4.192z"/>
        <path fill="#000" d="M5.158 14.981h-.516c-.56 0-.928-.273-1.077-.663-.146-.38-.06-.83.33-1.225l9.019-9.146a1.49 1.49 0 0 1 2.13 0l9.02 9.146c.389.395.475.845.33 1.225-.15.39-.518.663-1.077.663h-.546v7.63c0 1.104-.88 2.06-1.948 2.06h-5.192v-5.51h-3.424v5.51H7.136c-1.072 0-1.978-.95-1.978-2.06v-7.63zm15.665 8.69c.496 0 .948-.49.948-1.06v-8.63h1.546c.13 0 .137-.005.143-.02.008-.02 0-.055-.108-.166l-9.02-9.146a.49.49 0 0 0-.706 0l-9.02 9.146c-.108.11-.115.146-.107.165.006.016.013.021.143.021h1.516v8.63c0 .569.469 1.06.978 1.06h4.071v-5.51h5.424v5.51h4.192z"/>
    </g>
</svg>
