<svg xmlns="http://www.w3.org/2000/svg" xmlns:xlink="http://www.w3.org/1999/xlink" width="260" height="260" viewBox="0 0 260 260">
    <defs>
        <rect id="b" width="165" height="90" x="24" y="122" rx="16"/>
        <filter id="a" width="154.5%" height="200%" x="-27.3%" y="-36.7%" filterUnits="objectBoundingBox">
            <feOffset dy="12" in="SourceAlpha" result="shadowOffsetOuter1"/>
            <feGaussianBlur in="shadowOffsetOuter1" result="shadowBlurOuter1" stdDeviation="13"/>
            <feComposite in="shadowBlurOuter1" in2="SourceAlpha" operator="out" result="shadowBlurOuter1"/>
            <feColorMatrix in="shadowBlurOuter1" values="0 0 0 0 0.0980392157 0 0 0 0 0.345098039 0 0 0 0 0.309803922 0 0 0 0.34057971 0"/>
        </filter>
        <rect id="c" width="212" height="212" rx="16"/>
    </defs>
    <g fill="none" fill-rule="evenodd">
        <g transform="translate(24 24)">
            <use fill="#000" filter="url(#a)" xlink:href="#b"/>
            <use fill="#F5F5F5" xlink:href="#b"/>
            <rect width="164" height="89" x="24.5" y="122.5" stroke="#D8D8D9" rx="16"/>
        </g>
        <g transform="translate(24 24)">
            <use fill="#B9EADF" xlink:href="#c"/>
            <rect width="211" height="211" x=".5" y=".5" stroke="#62C3B5" rx="16"/>
        </g>
        <path fill="#FFF" d="M180 130c0 27.614-22.386 50-50 50s-50-22.386-50-50 22.386-50 50-50 50 22.386 50 50"/>
        <path stroke="#101111" stroke-width="2" d="M180 130c0 27.614-22.386 50-50 50s-50-22.386-50-50 22.386-50 50-50 50 22.386 50 50z"/>
        <path fill="#101111" d="M131.695 130.566v-.285c0-.62.592-1.128 1.317-1.128h24.484c.725 0 1.318.508 1.318 1.128v.285c0 .62-.593 1.129-1.318 1.129h-24.484c-.725 0-1.317-.508-1.317-1.129M129.366 131.241l.24.241a1.353 1.353 0 0 1 0 1.909l-25.877 25.876a1.351 1.351 0 0 1-1.908 0l-.24-.24a1.354 1.354 0 0 1 0-1.91l25.876-25.876a1.354 1.354 0 0 1 1.909 0M129.81 91.017c-.828 0-1.505-.66-1.505-1.467v-9.083c0-.806.677-.467 1.505-.467h.38c.828 0 1.505-.34 1.505.467v9.083c0 .806-.677 1.467-1.505 1.467h-.38zM129.81 180c-.828 0-1.505.34-1.505-.468v-9.08c0-.808.677-1.469 1.505-1.469h.38c.828 0 1.505.661 1.505 1.468v9.081c0 .807-.677.468-1.505.468h-.38zM168.83 129.81c0-.828.661-1.505 1.468-1.505h9.082c.807 0 .467.677.467 1.505v.38c0 .827.34 1.505-.467 1.505h-9.082c-.807 0-1.467-.678-1.467-1.506v-.38zM80 129.81c0-.828-.34-1.505.467-1.505h9.083c.807 0 1.467.677 1.467 1.505v.38c0 .827-.66 1.505-1.467 1.505h-9.083c-.806 0-.467-.678-.467-1.506v-.38z"/>
        <path fill="#57C1B0" d="M131.661 134.322a4.666 4.666 0 0 1-4.661-4.66 4.667 4.667 0 0 1 4.661-4.662c2.57 0 4.661 2.091 4.661 4.661 0 2.57-2.09 4.661-4.66 4.661"/>
        <path fill="#000" d="M131.695 124.068a5.94 5.94 0 0 0-5.932 5.932 5.938 5.938 0 0 0 5.932 5.932 5.938 5.938 0 0 0 5.932-5.932 5.939 5.939 0 0 0-5.932-5.932m0 2.454a3.478 3.478 0 1 1 0 6.955 3.478 3.478 0 0 1 0-6.955"/>
    </g>
</svg>
