<svg xmlns="http://www.w3.org/2000/svg" width="24" height="24" viewBox="0 0 24 24">
    <path fill="#FFF" fill-rule="nonzero" d="M21 7.538a7.305 7.305 0 0 1-2.002.517A3.34 3.34 0 0 0 20.53 6.24a7.301 7.301 0 0 1-2.216.797A3.582 3.582 0 0 0 15.77 6c-1.926 0-3.487 1.47-3.487 3.282 0 .257.03.508.09.748-2.898-.137-5.468-1.444-7.188-3.43a3.114 3.114 0 0 0-.471 1.65c0 1.14.616 2.144 1.55 2.732a3.654 3.654 0 0 1-1.579-.412v.041c0 1.59 1.203 2.918 2.797 3.22a3.74 3.74 0 0 1-.919.115c-.225 0-.443-.021-.656-.061.444 1.305 1.731 2.254 3.257 2.28a7.278 7.278 0 0 1-4.331 1.403c-.282 0-.559-.016-.832-.045A10.307 10.307 0 0 0 9.346 19c6.415 0 9.921-5.002 9.921-9.34l-.011-.426A6.755 6.755 0 0 0 21 7.538z"/>
</svg>
