<svg xmlns="http://www.w3.org/2000/svg" viewBox="-6585.518 17.025 82.518 14.132">
  <defs>
    <style>
      .cls-1 {
        fill: #333;
      }
    </style>
  </defs>
  <g id="Group_307" data-name="Group 307" transform="translate(-6585.517 17.025)">
    <path id="Path_121" data-name="Path 121" class="cls-1" d="M90.084,196.294v13.661H87.493l-6.477-9.029v9.029H78.425V196.294h2.591l6.477,9.009v-9.009Z" transform="translate(-78.425 -196.058)"/>
    <path id="Path_122" data-name="Path 122" class="cls-1" d="M135.383,198.572v3.415h5.888v2.14h-5.888v3.553H141.7v2.277h-8.911V196.295H141.7v2.277h-6.321Z" transform="translate(-116.305 -196.059)"/>
    <path id="Path_123" data-name="Path 123" class="cls-1" d="M184.362,196.294l-4.986,13.661h-3.023l-4.986-13.661h2.807l3.749,10.913,3.73-10.913Z" transform="translate(-143.182 -196.058)"/>
    <path id="Path_124" data-name="Path 124" class="cls-1" d="M227.291,198.572v3.415h5.888v2.14h-5.888v3.553h6.321v2.277H224.7V196.295h8.911v2.277h-6.321Z" transform="translate(-180.34 -196.059)"/>
    <path id="Path_125" data-name="Path 125" class="cls-1" d="M269.624,209.355a12.281,12.281,0,0,1-2.336-.8v-2.513a9.834,9.834,0,0,0,4.554,1.374,2.773,2.773,0,0,0,1.619-.432,1.4,1.4,0,0,0,.618-1.217,1.348,1.348,0,0,0-.343-.932,2.716,2.716,0,0,0-.854-.628q-.511-.245-1.453-.6a16.712,16.712,0,0,1-2.08-.9,4.01,4.01,0,0,1-1.374-1.227,3.44,3.44,0,0,1-.569-2.051,3.488,3.488,0,0,1,1.276-2.876,5.407,5.407,0,0,1,3.494-1.03,9.253,9.253,0,0,1,2.041.226,7.809,7.809,0,0,1,1.845.657v2.454a7.891,7.891,0,0,0-3.827-1.1,3,3,0,0,0-1.6.363,1.151,1.151,0,0,0-.579,1.031,1.187,1.187,0,0,0,.6,1.05,9.76,9.76,0,0,0,1.855.834,18.067,18.067,0,0,1,2.159.942,4.319,4.319,0,0,1,1.462,1.305,3.877,3.877,0,0,1,.658,2.208,3.779,3.779,0,0,1-1.315,3.052,5.271,5.271,0,0,1-3.513,1.109A10.053,10.053,0,0,1,269.624,209.355Z" transform="translate(-210.013 -195.517)"/>
    <path id="Path_126" data-name="Path 126" class="cls-1" d="M313.628,208.62a5.876,5.876,0,0,1-1.551-4.318v-8.008h2.591v7.949a3.931,3.931,0,0,0,.844,2.778,3.135,3.135,0,0,0,2.395.893,3.093,3.093,0,0,0,2.4-.913,3.972,3.972,0,0,0,.834-2.758v-7.949h2.591V204.3a5.878,5.878,0,0,1-1.551,4.318,6.616,6.616,0,0,1-8.558,0Z" transform="translate(-241.219 -196.058)"/>
  </g>
</svg>
