<svg xmlns="http://www.w3.org/2000/svg" viewBox="-7563 1 50 48.806">
  <defs>
    <style>
      .cls-1 {
        fill: #fff;
      }

      .cls-2 {
        fill: #fff;
      }

      .cls-3 {
        fill: #fff;
      }

      .cls-4 {
        fill: #fff;
      }

      .cls-5 {
        fill: #fff;
      }

      .cls-6 {
        fill: #fff;
      }

      .cls-7 {
        fill: #fff;
      }
    </style>
  </defs>
  <g id="Group_310" data-name="Group 310" transform="translate(-7563 1)">
    <path id="Path_127" data-name="Path 127" class="cls-1" d="M193.158,71.128a.882.882,0,0,0-.792-.325,41.127,41.127,0,0,0-6.309,1.291,25.97,25.97,0,0,0-9.051,4.365,15.462,15.462,0,0,0-1.408,1.273,12.641,12.641,0,0,0-3.122,4.708,7.545,7.545,0,0,1,.635,1.552,9.231,9.231,0,0,1,2.526-4.042,11.674,11.674,0,0,1,1.09-.986c.152-.121.306-.239.464-.351,0,.007,0,.014,0,.021.291-.277.6-.545.914-.8,4.074-3.253,10.08-4.59,13-5.073-1.12,2.743-3.757,8.3-7.834,11.553q-.539.429-1.117.8c-.1.089-.206.179-.314.264a11.72,11.72,0,0,1-1.2.846,9.264,9.264,0,0,1-4.481,1.566,7.542,7.542,0,0,1,1.4.986,12.71,12.71,0,0,0,5.248-1.99,15.459,15.459,0,0,0,1.563-1.1,25.972,25.972,0,0,0,6.266-7.855,41.119,41.119,0,0,0,2.66-5.865A.881.881,0,0,0,193.158,71.128Z" transform="translate(-148.142 -61.487)"/>
    <path id="Path_128" data-name="Path 128" class="cls-2" d="M56.176,87.977a9.258,9.258,0,0,1-4.495-1.559,11.926,11.926,0,0,1-1.2-.843c-.154-.123-.306-.249-.455-.379h0c-.321-.214-.636-.442-.941-.684-4.082-3.243-6.729-8.8-7.853-11.54,2.924.478,8.933,1.8,13.012,5.052q.493.393.949.829c.134.1.266.2.4.3a11.665,11.665,0,0,1,1.092.983,9.268,9.268,0,0,1,2.533,4.038,7.476,7.476,0,0,1,.655-1.6,12.667,12.667,0,0,0-3.108-4.649,15.5,15.5,0,0,0-1.418-1.279,25.973,25.973,0,0,0-9.058-4.35,41.1,41.1,0,0,0-6.311-1.28.881.881,0,0,0-.931,1.171,41.124,41.124,0,0,0,2.669,5.861,25.972,25.972,0,0,0,6.279,7.845,15.411,15.411,0,0,0,1.555,1.088,12.752,12.752,0,0,0,5.237,1.985A7.541,7.541,0,0,1,56.176,87.977Z" transform="translate(-34.242 -61.667)"/>
    <path id="Path_129" data-name="Path 129" class="cls-3" d="M138.43,30.558a7.545,7.545,0,0,1,1.615.47,9.231,9.231,0,0,1-1.583-4.485,11.631,11.631,0,0,1-.092-1.467c0-.2,0-.4.012-.6l.018.014c-.034-.389-.053-.784-.054-1.18-.011-5.213,2.681-10.747,4.123-13.335,1.451,2.584,4.16,8.109,4.166,13.322q0,.679-.066,1.353c0,.137.008.274.008.411a11.627,11.627,0,0,1-.088,1.467,9.221,9.221,0,0,1-1.569,4.49,7.542,7.542,0,0,1,1.662-.486,12.654,12.654,0,0,0,1.7-5.331,15.485,15.485,0,0,0,.115-1.906c-.008-6.713-3.97-13.58-5.184-15.525a.881.881,0,0,0-.747-.414h0a.881.881,0,0,0-.747.417c-1.208,1.949-5.147,8.83-5.133,15.542a15.41,15.41,0,0,0,.12,1.894A12.669,12.669,0,0,0,138.43,30.558Z" transform="translate(-117.516 -7.355)"/>
    <path id="Path_130" data-name="Path 130" class="cls-4" d="M170.99,190.413a15.43,15.43,0,0,0-.93-1.655,12.675,12.675,0,0,0-3.885-4.076,7.587,7.587,0,0,1-1.684.284,9.229,9.229,0,0,1,3.365,3.348,11.435,11.435,0,0,1,.72,1.279c.071.145.138.293.2.441.224.369.433.753.624,1.146,2.272,4.692,2.248,10.845,2.071,13.8-2.428-1.7-7.267-5.5-9.534-10.2q-.262-.543-.475-1.107l-.007.014c-.1-.173-.187-.351-.273-.528a12.062,12.062,0,0,1-.557-1.362,10.358,10.358,0,0,1-.645-3.44,7.088,7.088,0,0,1,.111-1.284,7.522,7.522,0,0,1-1.239,1.123,12.674,12.674,0,0,0,.774,5.584,15.459,15.459,0,0,0,.723,1.767c2.919,6.043,9.469,10.513,11.406,11.739a.881.881,0,0,0,1.347-.652C173.351,204.363,173.915,196.454,170.99,190.413Z" transform="translate(-136.473 -158.66)"/>
    <g id="Group_308" data-name="Group 308" transform="translate(13.194 21.587)">
      <path id="Path_131" data-name="Path 131" class="cls-5" d="M215.685,163.291c-1.688-1.66-7.476-6.954-13.968-8.421a15.426,15.426,0,0,0-1.873-.3,16.115,16.115,0,0,0-1.785-.1,11.6,11.6,0,0,0-3.845.611,7.508,7.508,0,0,1-.817,1.466,9.231,9.231,0,0,1,4.725-.547,12.152,12.152,0,0,1,1.45.237c.2.045.39.094.586.149.391.054.783.124,1.171.211,5.086,1.15,9.883,5.006,12.085,6.988a35.584,35.584,0,0,1-9.682,1.533,19.226,19.226,0,0,1-4.234-.437q-.61-.139-1.2-.332c-.179-.031-.357-.066-.534-.107a11.485,11.485,0,0,1-1.412-.415,10.706,10.706,0,0,1-2.749-1.382,10.376,10.376,0,0,1,.05,1.581,13.947,13.947,0,0,0,3.626,1.836,15.456,15.456,0,0,0,1.833.536,20.994,20.994,0,0,0,4.625.48h0a38.5,38.5,0,0,0,11.623-2.065.881.881,0,0,0,.33-1.515Z" transform="translate(-179.186 -154.462)"/>
      <path id="Path_132" data-name="Path 132" class="cls-6" d="M110.968,188.32c-.185-.132-.356-.266-.516-.4l-.039-.033-.117-.1-.064-.058-.1-.09-.077-.074-.079-.078-.091-.094-.058-.06c-.049-.052-.1-.1-.142-.156.021.114.038.232.054.353,0,.017,0,.034.007.052q.022.183.036.377l0,.033a7.95,7.95,0,0,1,.007.881,10.677,10.677,0,0,1-.622,3.031,11.9,11.9,0,0,1-.554,1.362c-.056.117-.117.232-.177.349-.155.43-.333.858-.533,1.276-2.252,4.7-7.078,8.519-9.5,10.226-.186-2.957-.23-9.111,2.027-13.81q.258-.538.563-1.052l-.025,0c.076-.182.159-.365.244-.543a12.354,12.354,0,0,1,.718-1.284,9.229,9.229,0,0,1,3.362-3.362,7.541,7.541,0,0,1-1.661-.272,12.65,12.65,0,0,0-3.86,4.078,15.506,15.506,0,0,0-.931,1.667c-2.9,6.05-2.316,13.958-2.066,16.237a.881.881,0,0,0,1.349.647c1.934-1.232,8.469-5.722,11.368-11.776a15.411,15.411,0,0,0,.714-1.758,13.849,13.849,0,0,0,.808-3.99A10.364,10.364,0,0,0,110.968,188.32Z" transform="translate(-96.556 -180.345)"/>
    </g>
    <path id="Path_133" data-name="Path 133" class="cls-7" d="M30.157,162.714a7.089,7.089,0,0,1,.111-1.284,9.255,9.255,0,0,1-4.018,2.542,12.053,12.053,0,0,1-1.41.417c-.149.034-.3.065-.448.093-.409.136-.829.254-1.253.352a19.3,19.3,0,0,1-4.312.451h0a35.689,35.689,0,0,1-9.607-1.5c2.2-1.989,6.98-5.861,12.062-7.028q.571-.131,1.152-.212l-.008-.006c.19-.054.382-.1.573-.147a11.714,11.714,0,0,1,1.45-.242,12.564,12.564,0,0,1,1.412-.083,8.411,8.411,0,0,1,3.312.616,7.531,7.531,0,0,1-.831-1.485,11.6,11.6,0,0,0-3.751-.578,16,16,0,0,0-1.821.108,15.441,15.441,0,0,0-1.884.312c-6.543,1.5-12.357,6.892-13.983,8.508a.881.881,0,0,0,.335,1.458,38.609,38.609,0,0,0,11.586,2.041h0a21.058,21.058,0,0,0,4.707-.5,15.441,15.441,0,0,0,1.82-.538,12.717,12.717,0,0,0,4.816-2.853C30.163,163.008,30.157,162.858,30.157,162.714Z" transform="translate(-6.645 -133.009)"/>
  </g>
</svg>
