<svg xmlns="http://www.w3.org/2000/svg" viewBox="-1077.859 -974.571 44.936 43.218">
  <defs>
    <style>
      .cls-1 {
        fill: none;
        stroke: #6a6666;
        stroke-linecap: round;
        stroke-linejoin: round;
        stroke-miterlimit: 10;
        stroke-width: 3px;
      }
    </style>
  </defs>
  <g id="Group_311" data-name="Group 311" transform="translate(-1722 -1189)">
    <path id="Path_6" data-name="Path 6" class="cls-1" d="M45.945,56.3,42.167,78.78a1.312,1.312,0,0,1-1.308,1.085H9.294A1.312,1.312,0,0,1,7.987,78.78L4.1,56.3" transform="translate(641.569 176.282)"/>
    <path id="Path_7" data-name="Path 7" class="cls-1" d="M4.063,53.506A1.3,1.3,0,0,1,5.37,52H44.636a1.27,1.27,0,0,1,1.308,1.471" transform="translate(641.606 179.076)"/>
    <path id="Path_8" data-name="Path 8" class="cls-1" d="M28,13.262l2.361-8.189A2.24,2.24,0,0,1,32.54,3.5H48.268a2.2,2.2,0,0,1,2.179,1.708l1.889,8.325" transform="translate(626.35 212.429)"/>
  </g>
</svg>
