<svg xmlns="http://www.w3.org/2000/svg" viewBox="-6706.136 2815.5 22.844 22.832">
  <defs>
    <style>
      .cls-1 {
        fill: #458fbe;
      }
    </style>
  </defs>
  <g id="Group_251" data-name="Group 251" transform="translate(-7732 -3760)">
    <path id="Path_79" data-name="Path 79" class="cls-1" d="M7.468,11H15.5c.615.07,1.231.106,1.846.193a5.869,5.869,0,0,1,5.24,4.748,16.3,16.3,0,0,1,.3,3.2A67.65,67.65,0,0,1,22.7,28.2a5.891,5.891,0,0,1-3.833,5.082,8.053,8.053,0,0,1-3.007.545c-2.813.018-5.627,0-8.423,0a11.618,11.618,0,0,1-1.741-.141A6.217,6.217,0,0,1,.293,28C.223,27.283.17,26.562.1,25.823V18.79c.088-.7.088-1.424.176-2.145A5.872,5.872,0,0,1,5.27,11.264C6.008,11.106,6.747,11.088,7.468,11Zm4.009,20.064v.018c.545,0,1.108.018,1.653,0a27.8,27.8,0,0,0,4.009-.158A3.439,3.439,0,0,0,20.3,27.617c.123-.932.123-1.882.158-2.831a60.916,60.916,0,0,0-.158-7.807,3.343,3.343,0,0,0-2.937-3.235,18.272,18.272,0,0,0-3.534-.211q-2.638-.026-5.275,0c-.826.018-1.653.035-2.462.123a3.49,3.49,0,0,0-3.411,3.376c-.123.932-.123,1.864-.158,2.8A59.919,59.919,0,0,0,2.7,27.775a3.217,3.217,0,0,0,2.092,2.849,6.726,6.726,0,0,0,2.356.422C8.593,31.081,10.035,31.064,11.477,31.064Z" transform="translate(1025.764 6564.5)"/>
    <path id="Path_80" data-name="Path 80" class="cls-1" d="M43.917,50.414A5.61,5.61,0,1,1,38.36,44.7,5.647,5.647,0,0,1,43.917,50.414Zm-5.609,3.218a3.218,3.218,0,1,0-3.165-3.253A3.186,3.186,0,0,0,38.308,53.632Z" transform="translate(998.897 6536.727)"/>
    <path id="Path_81" data-name="Path 81" class="cls-1" d="M93.017,37.8a1.317,1.317,0,0,1,1.319,1.319,1.363,1.363,0,0,1-1.319,1.372A1.329,1.329,0,0,1,91.7,39.117,1.246,1.246,0,0,1,93.017,37.8Z" transform="translate(950.272 6542.415)"/>
  </g>
</svg>
