<svg xmlns="http://www.w3.org/2000/svg" viewBox="-6624.88 2816.87 25.321 20.668">
  <defs>
    <style>
      .cls-1 {
        fill: #458fbe;
      }
    </style>
  </defs>
  <path id="Path_82" data-name="Path 82" class="cls-1" d="M392.4,26.123h0a.158.158,0,0,1,.088-.018,5.98,5.98,0,0,0,.791.053,9.967,9.967,0,0,0,1.618-.07,11.449,11.449,0,0,0,1.547-.3,10.155,10.155,0,0,0,3.57-1.776c.018-.018.053-.035.053-.07a4.311,4.311,0,0,1-.475-.035,5.081,5.081,0,0,1-1.67-.492,5.2,5.2,0,0,1-2.638-2.989c-.035-.106-.035-.106.07-.088h.018a3.669,3.669,0,0,0,.756.07,3.937,3.937,0,0,0,1.02-.088,1.41,1.41,0,0,0,.369-.088c-.035-.018-.035-.018-.053-.018a7.77,7.77,0,0,1-.844-.264,5.041,5.041,0,0,1-1.583-1.037,5.261,5.261,0,0,1-1.653-3.781c0-.106,0-.106.105-.053.158.088.317.158.475.229a4.861,4.861,0,0,0,1.407.352.96.96,0,0,0,.316.018.038.038,0,0,0-.035-.035,6.55,6.55,0,0,1-.756-.633,5.233,5.233,0,0,1-1.037-1.53,5.071,5.071,0,0,1-.44-1.829,5.491,5.491,0,0,1,.088-1.319,5.156,5.156,0,0,1,.563-1.53c.035-.07.053-.07.105-.018l.264.317a15.7,15.7,0,0,0,1.53,1.53,18.91,18.91,0,0,0,1.635,1.231,15.354,15.354,0,0,0,3.429,1.635,15.718,15.718,0,0,0,3.71.7c.07,0,.088,0,.07-.088a6.059,6.059,0,0,1-.123-.967,5.243,5.243,0,0,1,3.218-4.959,5.013,5.013,0,0,1,1.512-.369c.106-.018.229,0,.334-.018h.3c.018,0,.053.018.07.018a4.414,4.414,0,0,1,.967.123,5.15,5.15,0,0,1,2.55,1.442.146.146,0,0,0,.141.053c.352-.07.686-.158,1.037-.264a10.273,10.273,0,0,0,2.11-.932.188.188,0,0,1,.106-.035,5.407,5.407,0,0,1-2.216,2.849,10.452,10.452,0,0,0,2.9-.791.091.091,0,0,1-.035.07,9.49,9.49,0,0,1-1.125,1.389,10.655,10.655,0,0,1-1.354,1.178.106.106,0,0,0-.053.106,17.089,17.089,0,0,1-.07,2.128c-.053.457-.123.9-.211,1.354a18.5,18.5,0,0,1-.528,1.934,17.1,17.1,0,0,1-1.319,2.884,15.523,15.523,0,0,1-2.057,2.743,14.426,14.426,0,0,1-1.723,1.547,14.052,14.052,0,0,1-5.363,2.479,17.379,17.379,0,0,1-1.952.317c-.4.035-.826.07-1.248.07a14.229,14.229,0,0,1-1.934-.07c-.44-.053-.879-.106-1.3-.193a14.942,14.942,0,0,1-2.3-.651,14.431,14.431,0,0,1-1.846-.826A6.6,6.6,0,0,0,392.4,26.123Z" transform="translate(-7017.28 2809.07)"/>
</svg>
