<svg xmlns="http://www.w3.org/2000/svg" viewBox="-6666.941 2816.185 25.191 21.354">
  <defs>
    <style>
      .cls-1 {
        fill: #458fbe;
      }
    </style>
  </defs>
  <path id="Path_78" data-name="Path 78" class="cls-1" d="M239.208,0h.538c.019,0,.019.019.037.019.538.019,1.075.037,1.613.074.445.019.89.056,1.335.093s.871.093,1.316.148c.463.056.927.111,1.409.167.482.074.964.13,1.446.222.686.111,1.39.222,2.058.352a3.735,3.735,0,0,1,2.317,1.446,3.849,3.849,0,0,1,.76,1.761l.056.389V16.7c0,.019-.019.056-.019.074-.037.2-.037.389-.093.593a3.886,3.886,0,0,1-2.669,2.855,11.114,11.114,0,0,1-1.131.241c-.5.093-1,.167-1.5.241l-1.2.167c-.408.056-.816.111-1.242.167s-.853.093-1.26.13l-1.223.111q-.612.056-1.223.056c-.612.019-1.223.019-1.817.019-.315,0-.649-.019-.964-.037-.445-.037-.908-.056-1.353-.111l-1.2-.111c-.482-.056-.945-.111-1.427-.185l-1.613-.222c-.686-.111-1.372-.241-2.058-.352a3.719,3.719,0,0,1-2.354-1.409A3.859,3.859,0,0,1,226.9,16.5V4.968a4.747,4.747,0,0,1,.056-.723,3.8,3.8,0,0,1,2.132-2.8,5.507,5.507,0,0,1,1.427-.426c.649-.111,1.3-.222,1.946-.315.538-.093,1.094-.167,1.65-.241s1.131-.13,1.705-.185c.556-.056,1.112-.111,1.668-.148.5-.037.982-.037,1.483-.056A.373.373,0,0,1,239.208,0Zm-2.632,6.21v8.9q3.865-2.224,7.748-4.449C241.748,9.176,239.171,7.711,236.576,6.21Z" transform="translate(-6893.841 2816.185)"/>
</svg>
